<?xml version="1.0" encoding="UTF-8" standalone="no"?>
<!DOCTYPE svg PUBLIC "-//W3C//DTD SVG 1.1//EN" "http://www.w3.org/Graphics/SVG/1.1/DTD/svg11.dtd">
<svg width="100%" height="100%" viewBox="0 0 11812 11812" version="1.1" xmlns="http://www.w3.org/2000/svg" xmlns:xlink="http://www.w3.org/1999/xlink" xml:space="preserve" xmlns:serif="http://www.serif.com/" style="fill-rule:evenodd;clip-rule:evenodd;stroke-linejoin:round;stroke-miterlimit:2;">
    <g transform="matrix(19.894312,0,0,19.896419,-4525.340801,-5898.813567)">
        <path d="M369.5,682.491C326.554,684.452 291.555,680.071 266.499,680.84C262.807,680.953 250.315,676.623 242.782,663.346C231.94,644.241 243.303,634.228 244.41,632.453C245.966,629.957 237.361,628.952 235.48,620.505C232.495,607.101 242.363,607.528 240.824,603.373C234.469,586.213 250.955,583.481 252.402,581.44C252.882,580.762 244.697,561.247 261.734,549.859C265.022,547.661 263.752,546.796 261.897,543.303C258.375,536.672 262.32,527.293 269.424,524.333C273.985,522.432 269.295,517.676 272.971,511.798C278.617,502.772 287.791,506.579 287.871,502.517C287.891,501.527 288.035,494.292 290.269,490.366C296.917,478.68 306.412,477.567 307.386,477.2C311.446,475.671 303.114,460.815 320.405,456.146C324.657,453.767 320.918,450.661 325.697,444.651C333.598,434.715 342.12,443.35 343.871,437.603C349.674,418.547 365.574,420.807 367.301,420.071C368.447,419.583 367.747,401.789 384.519,402.162C389.897,402.282 386.953,398.074 391.86,393.913C402.969,384.492 410.706,395.814 413.22,391.356C417.271,384.174 419.017,383.39 424.287,380.097L425.5,381.711C426.2,381.656 426.8,381.104 427.5,381.049C430.624,380.804 430.692,381.488 433.447,380.118C434.242,379.723 437.969,380.69 438.49,380.436C438.893,380.239 439.077,379.695 439.5,379.548C440.146,379.323 441.349,380.78 442.5,380.768C446.463,380.727 448.337,384.397 448.815,380.5C448.855,380.173 450.863,376.149 451.131,375.253C451.465,374.14 451.692,374.379 452.382,373.42C454.538,370.424 456.226,372.175 459.5,367.175C461.352,366.803 461.349,366.835 461.5,366.773C464.871,365.402 464.85,367.038 468.5,367.417C471.005,367.678 471.076,368.478 473.368,367.257C473.749,367.054 481.741,364.29 484.555,358.974C485.193,359.004 490.692,358.211 496.175,361.958C498.047,363.237 500.193,366.5 501.469,365.457C503.921,363.454 503.041,362.548 508.322,359.181C509.735,358.419 520.936,351.226 534.816,360.021C539.864,363.219 539.387,349.633 554.449,351.795C561.232,352.769 560.54,358.054 565.492,355.485C574.923,350.593 583.364,356.563 586.011,360.808C587.811,363.697 588.325,363.816 591.506,362.515C608.498,355.566 618.25,368.659 619.582,369.192C621.173,369.828 630.578,358.889 641.879,368.13C646.21,373.112 646.085,373.58 647.483,373.368C670.747,369.839 663.59,386.597 668.481,386.052C671.153,385.754 670.942,385.118 673.549,384.851C692.122,382.95 697.408,397.446 699.423,399.685C701.09,399.32 701.073,399.521 702.648,398.979C714.702,394.835 720.919,402.621 722.206,406.591C724.144,412.573 727.686,406.845 734.414,410.657C743.393,415.744 741.353,423.14 741.387,425.504C741.434,428.758 752.251,426.306 760.292,433.743C770.808,443.47 763.699,451.511 771.538,450.823C773.174,450.679 786.945,449.47 789.023,461.591C789.668,465.355 789.753,465.775 793.431,466.767C801.2,468.859 803.442,476.573 802.872,482.542C802.29,488.62 796.718,490.302 802.319,492.869C820.9,501.383 818.883,524.795 810.911,536.803C803.705,547.659 801.495,545.229 779.721,558.859C768.175,565.386 754.579,574.462 712.77,595.984C711.575,595.29 711.832,594.944 710.5,594.666C706.624,593.857 707.301,596.123 703.589,597.671C700.281,599.05 686.424,608.153 680.519,610.537C679.591,610.912 679.739,611.167 669.615,616.66C668.302,617.373 668.888,617.979 667.594,618.727C667.068,619.031 666.748,618.27 660.631,621.765C659.011,622.69 659.342,623.228 657.545,623.572C656.842,623.706 657.085,624.028 649.678,627.815C641.88,631.801 642.246,632.342 634.369,636.222C632.976,636.908 618.376,644.661 609.328,650.216C606.394,652.018 606.785,652.623 603.482,653.461C602.065,653.82 589.597,660.994 589.383,661.309C587.801,663.635 586.73,662.47 584.578,663.702C583.83,664.131 576.727,668.2 575.48,669.467C574.261,670.705 569.257,672.259 567.437,673.396C551.768,683.192 550.951,681.943 532.531,681.229C528.051,681.056 528.093,681.247 476.501,680.443C434.874,679.795 424.953,680.902 420.5,681.399C420.305,681.421 405.978,681.455 404.5,680.899C403.307,680.45 403.364,680.076 388.503,679.677C370.549,679.194 370.182,681.865 369.5,682.491ZM511.109,495.319C511.787,492.731 512.502,488.71 507.394,485.694C497.098,479.617 493.109,502.276 507.336,499.128C509.536,497.487 509.506,497.523 511.109,495.319ZM805.874,514.512C805.86,514.062 808.873,502.754 791.503,496.491C791.093,496.343 784.643,496.329 791.135,501.934C801.085,510.524 799.924,523.247 803.422,522.181C806.04,521.383 805.77,515.591 805.874,514.512ZM319.888,486.292C313.589,482.322 296.017,494.432 301.721,508.268C305.584,509.035 306.042,504.85 307.695,501.609C313.55,490.132 318.924,492.687 319.888,486.292ZM670.389,401.925C677.716,404.389 677.93,404.063 685.632,410.334C694.664,417.687 686.039,392.594 670.476,395.338C669.724,395.47 656.131,397.867 662.478,400.543C663.07,400.792 662.982,400.755 670.389,401.925ZM432.411,400.313C439.734,397.136 439.859,397.707 447.585,395.694C448.004,395.585 452.054,392.727 444.551,391.22C422.917,386.877 416.54,412.285 425.206,405.135C428.602,402.333 428.686,402.59 432.411,400.313ZM747.419,447.582C755.978,457.167 755.635,461.72 758.227,458.324C759.141,457.127 757.774,443.54 750.358,439.788C742.151,435.635 729.35,437.07 738.71,442.122C743.265,444.581 743.177,444.625 747.419,447.582ZM254.587,660.339C256.247,660.605 256.359,661.121 257.206,660.22C261.142,656.034 251.576,654.374 258.16,635.358C260.004,630.033 256.003,631.009 254.611,632.6C244.366,644.308 246.727,651.329 254.587,660.339ZM356.163,450.085C357.193,448.878 363.371,440.2 373.613,435.762C380.546,432.758 374.914,431.226 374.542,431.195C361.121,430.082 356.009,436.189 353.776,444.572C352.65,448.799 352.033,451.405 356.163,450.085ZM248.535,600.476C252.415,604.866 269.167,607.953 267.222,603.594C266.529,602.039 258.334,583.67 249.618,591.631C245.883,595.042 248.222,599.835 248.535,600.476ZM276.375,555.55C272.84,552.486 264.642,560.748 262.693,563.628C257.868,570.755 266.823,595.535 268.164,576.467C269.017,564.348 275.75,560.407 276.375,555.55ZM265.127,615.129C265.891,613.369 266.463,612.763 264.666,612.182C258.199,610.094 258.215,610.318 251.488,609.627C241.3,608.579 242.314,618.998 245.476,621.524C251.766,626.547 260.876,618.16 265.127,615.129ZM344.918,453.405C344.617,452.474 341.601,443.147 333.629,448.698C323.358,455.85 341.773,467.952 343.531,468.219C346.842,468.723 345.066,454.586 344.918,453.405ZM392.453,425.927C392.85,425.955 397.066,426.256 397.414,425.458C398.38,423.241 384.921,400.599 377.697,413.599C372.306,423.3 390.927,425.728 392.453,425.927ZM318.54,475.467C322.381,478.473 324.747,479.769 335.435,476.305C342.567,473.994 335.196,470.388 332.693,468.278C319.641,457.28 314.316,468.644 318.54,475.467ZM655.131,495.391C655.294,494.531 656.674,487.251 653.443,484.569C645.75,478.184 645.194,495.37 645.192,495.375C640.729,505.677 623.434,497.769 626.84,505.093C632.441,507.746 649.679,509.097 655.131,495.391ZM406.522,417.511C407.179,415.723 411.383,406.905 407.612,401.413C405.954,398.999 402.458,398.196 399.385,399.134C388.185,402.553 401.414,418.503 401.904,419.178C403.964,422.012 405.001,420.663 406.522,417.511ZM638.956,379.445C638.308,377.369 638.7,377.213 637.34,375.642C633.58,371.298 615.99,370.967 629.728,393.353C632.989,398.668 635.547,390.277 636.005,389.27C637.927,384.399 638.458,384.617 638.956,379.445ZM794.074,483.248C795.327,479.417 793.809,467.503 780.815,476.904C770.87,484.099 772.462,485.424 772.647,486.27C788.379,490.652 793.018,484.621 794.074,483.248ZM542.197,391.776C536.692,389.003 525.961,382.692 513.498,387.495C499.542,392.874 499.855,396.777 499.965,398.151C501.238,398.719 501.188,399.123 502.547,398.641C510.381,395.859 510.277,395.841 518.456,394.187C538.049,392.057 544.001,398.747 542.197,391.776ZM741.203,511.074C741.827,510.555 749.361,505.605 747.523,500.493C743.295,488.732 725.384,511.676 726.084,516.591C726.266,517.865 727.604,519.554 741.203,511.074ZM298.733,620.028C300.476,620.431 315.109,623.82 321.105,620.23C320.99,614.153 292.629,603.084 294.645,615.471C294.972,617.477 298.327,619.753 298.733,620.028ZM297.087,528.546L295.286,520.556C290.597,503.526 275.367,514.047 280.406,522.563C282.334,525.82 294.506,531.298 295.487,531.575C297.729,532.208 297.055,530.826 297.087,528.546ZM376.619,511.286C390.358,519.233 379.5,503.512 378.751,502.336C366.614,483.29 362.35,496.143 362.414,497.504C362.429,497.827 362.52,499.754 363.749,501.317C368.856,507.811 369.646,506.825 376.619,511.286ZM657.712,391.675C663.572,382.832 651.444,377.241 646.59,382.583C643.399,386.095 639.688,396.034 639.567,396.511C638.623,400.249 652.062,397.354 657.712,391.675ZM632.558,532.305C632.572,532.906 631.486,533.165 631.5,533.767C631.51,534.21 632.305,534.177 632.608,534.5C633.414,535.358 633.334,535.54 634.487,535.37C636.053,535.139 639.508,530.333 639.798,529.5C641.426,524.814 638.743,525.353 638.039,524.809C634.518,521.978 634.622,521.988 634.312,521.759C629.987,518.56 604.362,499.609 569.535,503.696C567.991,503.877 565.096,508.468 568.627,513.06C582.848,513.316 602.291,507.454 632.558,532.305ZM429.735,533.135C429.669,533.696 428.798,533.939 428.731,534.5C428.668,535.036 432.529,537.618 435.361,534.398C435.725,533.984 439.584,529.594 438.928,528.5C438.541,527.854 437.448,527.873 437.06,527.227C437.765,525.57 443.517,512.051 437.227,504.722C435.089,502.231 428.529,498.282 425.151,501.055C418.402,506.595 430.805,511.207 432.415,514.544C436.573,523.161 427.156,528.389 429.735,533.135ZM339.069,492.296C339.053,492.239 339.387,487.407 328.61,492.705C323.206,495.36 319.393,499.023 318.693,499.695C313.16,505.01 310.61,517.531 311.781,523.346C314.204,525.713 314.661,523.88 315.946,520.69C323.848,501.075 330.392,500.42 339.069,492.296ZM363.111,656.309C363.271,655.937 364.74,652.513 364.647,651.485C364.122,645.669 359.489,652.948 359.243,653.333C348.784,669.767 339.911,655.07 334.646,658.723C324.014,666.098 350.464,681.621 363.111,656.309ZM408.292,629.368C409.453,629.038 408.793,630.843 409.997,630.5C410.242,630.43 410.105,630.288 412.248,628.242C412.502,628 413.946,626.621 416.5,627.169C417.589,627.403 417.415,627.931 418.5,627.728C419.823,627.482 419.509,627.041 420.609,626.292C423.429,628.148 424.799,628.489 427.916,632.168C431.719,636.656 432.762,639.985 434.794,637.796C440.448,631.702 418.6,608.186 404.674,615.84C391.346,623.165 399.371,639.923 408.292,629.368ZM738.157,561.557C733.627,550.123 727.615,565.118 723.51,566.524C712.283,570.37 704.655,558.169 704.135,564.454C703.433,572.931 738.165,581.88 738.157,561.557ZM271.737,666.174C271.779,666.346 269.435,668.075 272.5,669.286C272.649,669.345 272.899,669.444 274.5,669.298C278.781,668.908 276.108,661.173 275.875,660.5L273.912,660.406C270.29,643.694 272.194,640.449 275.571,628.516C276.103,626.636 274.332,623.64 271.893,626.825C255.863,647.757 267.893,660.927 271.737,666.174ZM420.1,546.313C422.249,536.7 411.983,533.973 407.744,538.705C405.445,541.272 407.671,546.527 407.935,547.149C407.86,547.776 406.681,547.873 406.606,548.5C406.603,548.523 412.438,554.412 418.5,551.352C424.81,548.167 420.467,546.704 420.1,546.313ZM646.649,619.041C646.647,619.104 644.743,620.075 646.593,621.5C649.635,623.845 651.436,620.885 655.087,619.163C658.038,617.771 657.45,616.645 655.036,614.449C653.386,610.707 652.385,611.823 648.57,610.334C646.792,609.64 639.957,605.529 639.423,608.481C638.418,614.036 645.774,618.509 646.649,619.041ZM748.56,496.493L750.509,499.155C753.761,497.8 751.389,496.815 748.664,494.495L747.665,493.036C747.396,492.94 744.149,493.87 748.56,496.493ZM580.297,479.588C580.365,479.451 580.277,479.301 580.178,479.15C580.126,478.962 580.075,478.781 580.028,478.605C580.41,477.891 581.128,478.315 581.254,476.5C581.46,473.508 585.651,472.433 585.159,469.459C584.404,464.89 585.09,464.862 584.927,464.5C584.704,464.007 583.53,465.069 583.308,464.577C575.64,453.151 559.68,478.126 583.635,491.246C590.138,494.808 590.289,492.34 591.185,491.411C590.472,489.735 590.544,489.691 590.415,489.601C584.432,485.466 584.003,485.862 580.297,479.588ZM623.946,539.438C621.867,529.117 611.65,527.789 608.697,529.814C600.585,535.376 612.648,540.579 613.439,543.518C615.681,551.857 599.927,562.181 599.717,562.593C596.066,569.738 624.912,563.044 623.946,539.438ZM303.474,637.122C303.741,637.341 303.851,637.095 304.003,636.974C304.069,636.957 304.134,636.939 304.2,636.921C304.245,636.931 304.295,636.957 304.352,637.004C305.234,637.727 304.71,638.005 305.5,638.781C305.729,639.006 306.129,639.163 306.428,639.045C306.83,638.886 306.901,638.264 307.29,638.074C308.261,637.6 308.253,637.806 309.249,637.232C311.123,636.15 310.742,635.777 312.436,634.438C312.728,634.208 315.908,631.695 314.888,630.5C314.45,629.987 313.696,629.812 313.258,629.299C313.289,629.014 313.606,628.813 313.637,628.528C313.949,625.594 301.87,625.439 299.462,630.479C296.783,636.083 302.86,637.026 303.474,637.122ZM645.592,594.039C648.459,596.124 651.064,594.98 651.5,594.789C658.33,591.791 658.93,590.199 659.193,589.5C659.905,587.609 658.037,587.218 658.036,587.217C662.556,573.083 639.911,587.124 645.592,594.039ZM498.191,548.608C498.598,547.824 499.155,548.1 499.285,546.5C499.433,544.682 499.145,544.543 500.5,543.319C500.711,543.129 502.688,541.343 503.236,541.049C503.531,540.891 503.957,541.346 504.234,541.159C504.973,540.659 505.481,539.877 506.02,539.167C506.109,539.049 506.99,537.889 506.805,537.5C506.522,536.902 505.498,536.912 505.215,536.314C509.97,523.514 478.246,526.228 489.939,552.284C495.094,563.769 513.382,570.215 511.413,563.534C510.272,559.662 505.161,563.242 498.191,548.608ZM630.588,411.212C630.828,411.745 630.26,412.431 630.5,412.964C630.958,413.98 632.4,414.258 632.595,414.296C633.013,414.376 636.05,412.403 636.337,412.216C637.514,411.451 637.823,411.699 638.104,410.334C639.245,404.796 636.633,405.2 636.196,404.634C628.866,397.097 623.059,407.376 630.588,411.212ZM689.846,553.099C690.005,553.69 689.341,554.312 689.5,554.904C689.782,555.953 700.311,559.412 702.038,552.5C702.48,550.735 701.458,551.06 701.149,550.295C706.555,536.352 684.133,539.1 688.301,550.584C688.741,551.798 688.846,551.665 689.846,553.099ZM757.734,492.202C757.627,493.314 756.608,492.681 756.5,493.796C756.49,493.9 756.478,494.021 757.5,494.627C758.947,495.484 759.141,494.763 760.655,495.5C760.819,495.58 760.517,495.979 760.686,496.046C760.887,496.125 762.17,496.63 763.379,496.014C766.928,494.205 767.315,491.976 767.398,491.5C767.831,489.008 766.327,489.765 766.073,489.354C766.888,481.507 760.033,482.735 758.493,483.487C753.071,486.137 757.308,491.647 757.734,492.202ZM775.096,474.02C775.721,474.351 775.875,475.279 776.5,475.611C777.026,475.89 779.295,472.899 779.5,472.629C780.098,471.841 780.476,472.889 781.273,472.223C781.546,471.995 780.947,471.491 781.101,471.17C781.299,470.755 781.838,470.62 782.185,470.318C783.627,469.059 784.949,465.031 780.887,462.32C775.01,454.161 764.652,457.798 765.731,475.488C766.128,481.986 769.556,478.459 775.096,474.02ZM360.641,637.21C360.91,637.685 360.232,638.365 360.5,638.839C360.759,639.298 361.486,639.226 361.936,639.5C362.146,639.628 362.611,640.6 364.5,640.354C370.052,639.631 370.379,639.582 371.188,637.5C372.135,635.061 370.294,635.578 370.121,635.207C374.06,626.232 362.997,623.33 359.567,625.61C351.901,630.707 359.894,636.654 360.641,637.21ZM588.514,559.48C588.511,559.897 587.795,560.083 587.792,560.5C587.79,560.706 589.226,561.952 589.5,561.952C593.169,561.96 595.519,557.101 595.81,556.5C597.035,553.966 595.096,553.623 595.011,553.282C596.355,549.888 597.132,550.072 596.824,546.476C596.103,538.046 583.447,542.703 588.514,559.48ZM642.122,570.278C642.728,570.508 642.895,571.418 643.5,571.648C643.773,571.752 643.895,571.209 644.137,571.044C650.351,566.792 651.031,568.398 651.5,567.965C652.057,567.451 652.201,566.585 652.758,566.071L654.672,567.207C660.204,569.597 664.276,566.229 662.286,559.608C651.402,542.902 629.463,562.003 632.884,582.418C633.996,589.052 637.534,586.681 637.714,584.525C638.412,576.165 639.106,576.353 642.122,570.278ZM410.544,602.453C414.949,603.04 412.683,600.631 412.52,600.477C408.813,596.968 410.476,602.239 410.544,602.453ZM754.498,504.501C759.258,505.833 756.476,502.065 755.469,502.093C753.87,502.137 754.479,502.849 754.498,504.501ZM417.58,606.369C423.139,606.653 418.526,603.473 417.609,603.768C415.988,604.289 416.896,604.842 417.58,606.369ZM649.969,527.63C649.822,526.434 650.231,526.229 649.329,525.807C648.682,525.504 647.607,525.937 647.408,526.445C646.487,528.796 648.091,529.21 649.969,527.63ZM410.198,447.032C410.786,445.699 411.569,445.516 410.433,444.577C408.947,443.346 406.269,447.271 410.198,447.032ZM508.909,411.12C510.166,411.431 510.23,411.976 511.222,411.152C511.85,410.631 511.791,409.248 511.24,408.903C508.502,407.192 508.882,410.864 508.909,411.12ZM672.162,493.345C672.117,491.611 672.169,490.889 670.434,491.344C668.89,491.75 669.186,496.473 672.162,493.345ZM477.439,418.375C477.578,418.218 479.309,416.273 477.425,415.758C476.484,415.5 472.442,417.982 477.439,418.375ZM446.69,428.857C447.454,427.72 448.1,427.709 447.308,426.647C445.821,424.655 443.032,428.47 445.575,429.054C445.943,429.139 446.322,428.772 446.69,428.857ZM391.372,591.856C397.038,590.298 390.972,588.684 390.39,589.418C389.401,590.664 390.282,590.661 391.372,591.856ZM589.159,624.28C589.374,622.716 589.979,622.113 588.468,621.958C586.18,621.722 586.476,626.698 589.159,624.28ZM557.863,362.799C557.418,362.331 554.313,359.072 550.348,359.834C535.647,362.659 551.393,381.461 556.902,381.107C557.987,378.533 559.709,367.63 557.863,362.799ZM694.636,495.138C714.945,503.205 697.185,523.029 697.688,526.461C697.907,527.953 701.589,530.839 712.064,514.269C724.742,477.006 678.351,471.829 685.78,490.34C685.548,490.862 684.75,490.978 684.518,491.5C684.286,492.023 687.12,496.88 691.5,496.656C693.459,496.555 693.369,497.006 693.5,496.911C694.069,496.501 694.066,495.548 694.636,495.138ZM648.739,414.023C647.909,416.054 647.422,416.82 649.613,417.299C649.998,417.384 649.979,416.788 654.535,417.253C654.913,417.291 655.121,417.835 655.5,417.86C655.822,417.88 655.69,417.389 659.5,417.306C661.525,417.261 661.03,416.442 661.578,416.133C683.106,421.717 683.913,433.689 687.442,429.459C689.343,427.18 677.096,403.406 650.407,410.125C647.609,410.829 647.074,411.622 648.739,414.023ZM496.814,436.476C496.791,436.316 496.308,429.409 494.222,426.705C493.902,426.291 491.712,423.453 488.5,423.533C475.358,423.858 489.128,449.756 493.627,452.209C494.755,452.824 496.703,452.439 496.814,436.476ZM433.562,673.223C434.057,673.618 434.005,674.48 434.5,674.875C435.468,675.648 435.59,675.353 436.585,676.037C438.447,677.319 444.603,671.864 443.777,668.5C443.621,667.867 442.284,668.083 442.128,667.45C442.126,666.726 442.087,653.028 437.637,659.589C436.808,660.811 436.107,662.118 435.262,663.329C431.514,668.703 427.574,670.57 433.562,673.223ZM425.337,480.559C424.683,479.475 420.574,472.661 409.733,477.956C381.968,491.516 402.469,523.931 409.461,524.771C417.744,525.767 399.597,510.785 408.095,497.222C415.6,487.335 427.826,492.964 425.337,480.559ZM341.107,582.132C349.915,567.655 328.246,564.118 322.014,584.358C317.697,598.38 330.955,609.655 332.713,611.151C350.077,619.91 351.651,616.001 351.221,614.558C349.954,610.309 337.393,610.126 334.166,596.548C334.312,588.145 335.391,588.297 341.107,582.132ZM365.672,597.307C372.698,604.555 368.233,611.023 370.667,614.276C372.573,614.595 372.62,614.506 374.056,613.267C381.628,584.339 352.887,580.633 350.955,590.578C349.476,598.192 360.065,593.363 365.672,597.307ZM477.765,530.124C479.137,530.397 479.208,530.91 480.268,530.129C481.797,529.001 493.103,520.669 500.677,517.971C524.102,509.627 535.281,512.81 545.505,513.592C548.359,513.81 547.891,506.27 547.534,505.481C546.627,503.473 509.963,496.586 476.789,520.853C472.159,524.24 474.414,525.459 477.765,530.124ZM511.35,644.748C525.897,654.284 509.93,632.866 506.798,627.336C503.115,620.834 500.037,617.051 491.829,603.301C490.035,600.295 489.122,600.955 483.646,603.791C478.574,606.417 466.371,616.854 473.652,621.257C476.175,622.782 483.609,626.769 511.35,644.748ZM459.034,538.744C456.157,533.932 455.575,532.964 453.583,533.732C422.886,545.567 409.655,570.064 407.313,574.4C403.296,581.838 399.342,583.878 406.602,588.23C409.782,588.747 410.667,590.398 411.764,587.622C414.499,580.701 414.569,580.782 418.262,574.362C418.549,573.891 420.027,570.667 425.422,564.428C446.206,540.393 461.6,546.156 459.034,538.744ZM544.268,549.396C554.918,517.837 525.97,515.07 523.342,525.457C521.112,534.27 534.445,529.896 536.647,534.429C541.306,544.02 532.966,556.958 532.897,557.57C532.831,558.15 533.754,562.448 540.048,556.126C542.308,552.741 542.318,552.873 544.268,549.396ZM400.329,607.426C399.866,603.73 393.848,600.664 391.59,603.569C372.398,628.258 372.115,662.402 375.982,672.056C377.936,672.969 377.931,672.882 381.513,672.796C385.82,672.694 384.756,670.552 383.457,661.504C383.402,658.309 383.049,638.051 391.139,622.307C393.367,617.92 393.029,617.82 400.329,607.426ZM592.785,450.023C604.33,457.614 598.85,468.972 601.837,475.081C603.132,475.418 607.665,476.6 607.927,459.51C608.445,425.698 561.211,430.788 571.901,447.219C575.721,453.09 585.866,445.971 592.785,450.023ZM393.129,537.774C359.504,505.728 336.344,546.681 347.782,554.073C357.782,560.536 360.201,545.671 362.247,541.37C373.509,525.687 396.485,549.323 393.129,537.774ZM651.646,467.037C660.893,470.579 660.09,477.632 667.443,476.228C677.752,474.26 671.914,458.413 657.383,454.981C630.607,448.657 617.307,491.279 629.146,480.229C631.443,477.376 638.974,464.143 651.646,467.037ZM702.847,586.387C700.786,581.412 692.732,557.553 664.705,541.16C657.277,536.815 654.867,533.104 650.997,540.727C648.781,545.09 654.131,543.595 666.74,553.157C696.311,575.583 691.682,595.083 697.613,592.835C704.945,590.056 703.221,587.777 702.847,586.387ZM611.406,500.171C619.995,496.116 615.692,488.956 614.265,487.793C604.556,479.88 596.311,502.184 611.406,500.171ZM518.35,556.599C526.602,567.148 524.456,546.133 522.012,543.909C519.157,541.311 516.366,541.201 514.799,544.621C513.218,548.07 517.835,555.742 518.35,556.599ZM579.089,568.671C578.587,568.154 575.233,564.692 572.936,562.096C566.512,554.838 560.914,563.333 567.846,570.056C571.213,571.762 579.325,574.195 579.089,568.671ZM535.597,674.11C537.209,674.63 542.479,676.866 539.027,671.803C538.729,671.366 531.494,657.935 525.101,664.085C524.549,664.615 523.225,666.09 524.299,668.601C525.251,670.826 534.639,673.805 535.597,674.11ZM458.421,591.66C472.339,596.508 451.944,569.777 449.059,581.384C447.968,585.776 457.452,591.114 458.421,591.66ZM449.943,637.604C450.025,636.857 450.659,631.098 445.571,629.299C436.757,626.184 441.968,640.046 442.01,640.551C442.816,650.181 447.983,643.463 449.943,637.604ZM533.704,572.082C534.848,572.361 546.375,575.174 547.319,566.476C547.813,561.925 543.737,558.598 539.801,562.801C534.337,568.636 530.656,568.394 533.704,572.082ZM512.409,579.268C514.758,578.016 524.312,574.151 513.493,572.555C509.465,571.961 507.703,570.808 505.525,570.353C499.993,569.196 498.778,583.391 512.409,579.268ZM620.412,591.531C625.294,599.875 632.828,600.057 630.395,593.552C630.249,593.16 628.188,579.43 622.603,583.645C619.244,586.18 620.272,590.891 620.412,591.531ZM424.481,650.26C438.23,647.859 419.603,639.587 414.361,642.256C413.441,642.724 407.479,650.781 424.481,650.26ZM654.623,607.085C656.27,607.408 666.857,609.487 675.43,604.372C692.912,593.941 685.162,579.287 677.472,578.788C669.072,578.244 673.455,588.546 673.805,589.371C675.492,593.336 671.599,598.829 663.386,601.026C658.962,602.209 642.129,601.639 654.623,607.085ZM676.33,527.553C676.071,526.539 673.961,518.265 679.749,514.925C695.487,505.843 681.435,503.697 680.563,503.865C660.278,507.776 670.735,536.275 677.545,537.056C681.583,537.519 678.89,533.522 676.33,527.553ZM455.391,564.208C468.947,560.807 469.422,582.093 470.529,584.483C473.254,590.371 477.643,576.283 473.387,566.552C461.469,539.305 440.856,555.747 445.849,563.291C448.922,567.933 450.089,566.013 455.391,564.208ZM589.95,525.481C589.331,523.641 589.329,520.322 582.507,519.422C580.732,519.188 576.698,519.32 574.622,520.691C559.795,530.475 572.111,562.314 577.718,557.821C579.748,556.194 578.24,555.753 576.187,549.592C575.495,546.342 574.641,542.129 576.038,536.377C578.35,526.865 588.813,535.269 589.95,525.481ZM393.384,440.547C392.36,439.662 389.822,437.471 376.621,442.801C357.824,450.391 355.251,478.152 364.085,465.247C379.314,442.998 392.109,447.126 393.384,440.547ZM487.134,499.943C485.223,499.341 485.215,499.591 480.501,499.478C466.388,499.14 468.511,485.525 468.216,484.585C465.284,475.213 450.6,487.112 461.923,499.105C468.34,505.902 489.768,506.709 487.134,499.943ZM545.038,480.224C545.402,479.202 548.172,471.437 545.203,466.662C544.828,466.058 541.746,461.1 537.444,462.322C529.592,464.551 538.399,473.558 536.525,478.509C532.736,488.52 523.432,486.563 524.781,492.213C533.439,495.127 543.881,481.71 545.038,480.224ZM420.424,669.347C421.255,668.875 429.338,664.278 429.428,661.496C429.581,656.728 422.404,662.515 416.488,663.431C400.54,665.9 402.233,657.368 402.069,655.525C400.75,640.655 382.999,656.621 393.806,667.188C402.713,675.897 418.42,670.088 420.424,669.347ZM455.079,602.306C454.769,596.004 448.289,603.683 435.904,593.023C429.08,587.149 438.638,581.993 434.714,577.334C426.14,567.152 408.175,595.358 438.601,604.072C442.078,604.763 449.55,606.879 455.079,602.306ZM401.158,564.098C401.459,563.781 404.794,560.263 403.092,558.993C401.837,558.057 399.097,559.772 398.798,559.959C382.701,570.032 379.76,555.695 377.343,553.708C372.496,549.724 362.153,559.903 378.636,569.104C390.611,571.833 394.777,568.179 401.158,564.098ZM542.077,595.498C542.205,587.53 543.924,581.584 538.486,580.588C534.579,579.872 529.356,580.727 528.573,580.856C525.183,581.411 515.741,585.766 515.497,588.5C515.32,590.482 538.875,632.595 539.694,633.088C542.944,635.043 542.042,631.408 542.077,595.498ZM504.343,667.626C502.289,666.059 459.932,642.955 457.599,643.82C451.954,645.914 445.822,667.615 453.514,668.09C457.566,668.34 502.873,671.137 504.227,670.151C505.142,669.484 504.631,669.311 504.343,667.626ZM295.334,554.652C293.973,554.273 290.305,553.253 280.867,564.789C270.04,578.024 281.626,606.511 282.264,589.491C283.283,562.352 296.608,562.279 295.334,554.652ZM625.289,626.114C629.306,623.633 629.28,623.696 633.538,621.567C640.394,618.139 620.526,599.474 616.21,603.078C614.884,604.185 595.845,633.575 594.112,636.251C589.244,643.764 587.677,643.523 588.666,647.274C592.833,647.509 603.008,638.786 625.289,626.114ZM575.958,394.358C580.504,398.078 588.445,391.805 607.367,398.861C613.697,401.221 618.347,406.2 618.109,400.668C605.119,383.955 590.773,386.343 577.408,392.344C575.842,393.048 576.005,394.254 575.958,394.358ZM787.049,525.628C788.359,530.131 787.401,530.347 789.364,534.578C792.789,541.963 799.799,518.033 784.21,505.839C776.951,500.161 767.001,497.024 770.788,502.303C774.386,507.319 780.547,507.25 787.049,525.628ZM293.139,537.747C292.102,537.081 287.478,534.112 279.304,530.989C273.262,528.68 263.94,535.845 271.774,544.113C279.027,547.678 293.419,540.251 293.337,538.505C293.325,538.244 293.151,538.008 293.139,537.747ZM715.108,412.435C715.11,404.139 706.651,404.451 703.377,406.305C694.76,411.184 703.713,426.517 704.59,428.019C707.925,426.535 713.3,419.011 715.108,412.435ZM549.018,442.537C544.403,426.699 503.736,432.605 509.871,468.44C511.275,476.64 514.5,473.035 514.643,472.552C515.879,468.382 513.251,465.918 519.079,455.262C524.716,448.17 526.683,446.453 540.538,450.243C546.018,450.446 548.325,448.514 549.018,442.537ZM461.155,406.689C458.827,405.619 458.949,405.466 457.533,405.295C436.068,402.707 429.715,410.638 422.771,420.641C420.095,429.181 431.127,418.69 434.724,416.981C455.729,406.997 461.197,411.997 461.155,406.689ZM732.977,421.287C729.1,414.076 721.68,417.857 720.712,418.751C717.775,421.46 711.589,430.888 711.241,431.404C711.281,431.688 710.141,433.909 713.498,433.763C722.008,433.393 736.401,432.29 732.977,421.287ZM739.664,542.151C744.922,545.233 744.676,545.711 746.462,551.513C748.892,559.408 755.195,562.74 761.273,555.371C762.647,551.972 762.769,551.912 761.81,548.42C761.529,547.394 759.645,540.531 755.153,536.918C734.979,520.688 712.697,541.59 713.912,544.362C714.853,546.51 716.627,545.793 722.439,543.322C731.947,540.442 732.062,540.499 739.664,542.151ZM552.907,661.493C552.837,660.169 552.141,647.014 545.492,646.665C532.373,645.975 544.857,671.154 549.55,674.417C553.556,677.202 552.888,662.548 552.907,661.493ZM475.719,467.193C482.171,472.192 481.956,472.426 486.354,479.61C487.759,481.906 491.373,480.357 488.695,473.425C471.991,430.182 426.917,464.877 446.633,474.004C459.005,475.201 458.805,457.093 475.719,467.193ZM750.951,474.534C750.256,471.607 749.243,462.317 742.324,454.672C735.583,447.223 713.355,443.713 718.499,449.5C719.646,450.79 731.994,454.831 738.158,461.801C743.232,467.538 745.569,472.508 748.609,476.274C750.319,476.228 750.356,476.093 750.951,474.534ZM627.562,448.544C629.894,444.76 632.97,440.938 634.43,433.483C634.886,431.156 633.742,427.991 631.389,426.748C622.036,421.812 620.003,445.653 622.077,451.691C623.171,454.877 627.274,448.96 627.562,448.544ZM462.249,521.629C457.634,518.123 459.77,522.991 459.905,523.171C461.388,525.159 462.651,524.072 462.249,521.629ZM685.222,472.31C685.649,470.516 686.397,469.612 684.494,469.603C682.869,469.595 680.416,474.976 685.222,472.31ZM557.379,497.492C558.76,501.647 561.278,497.675 559.793,496.137C558.501,494.799 558.325,495.841 557.379,497.492ZM295.116,588.519C296.491,590.13 297.178,591.241 298.012,589.259C298.345,588.466 297.158,583.229 295.116,588.519ZM558.429,539.497C557.887,537.987 558.145,537.244 556.545,537.623C554.514,538.104 556.575,543.511 558.429,539.497ZM658.521,514.52C658.739,512.489 659.188,512.25 658.297,511.836C656.627,511.059 654.012,516.015 658.521,514.52ZM562.91,430.476C562.177,428.94 562.251,428.097 560.703,428.884C559.245,429.626 561.045,435.305 562.91,430.476ZM513.505,615.497C517.074,618.685 516.661,613.894 515.565,613.401C513.718,612.57 513.58,613.438 513.505,615.497ZM563.606,414.526C563.137,412.772 563.299,412.036 561.51,412.527C560.145,412.902 560.229,418.592 563.606,414.526ZM559.165,523.409C558.641,521.886 559.111,521.116 557.473,521.337C557.269,521.365 555.885,521.551 556.199,523.578C556.534,525.736 557.492,524.804 559.165,523.409ZM562.031,455.524C560.796,454.31 560.712,453.205 559.457,454.458C558.553,455.362 559.913,460.365 562.031,455.524ZM560.593,489.524C559.508,483.601 557.748,489.401 557.754,489.462C557.954,491.726 559.223,491.333 560.593,489.524ZM442.832,493.195C448.402,494.826 444.233,490.312 443.492,490.293C441.434,490.239 442.174,491.259 442.832,493.195ZM559.411,515.472C559.176,513.531 559.26,512.704 557.349,513.245C556.239,513.56 556.436,519.354 559.411,515.472ZM694.481,457.491C694.391,451.441 691.553,456.884 691.64,457.459C692.021,459.97 694.321,457.652 694.481,457.491ZM690.804,449.077C693.297,449.501 694.723,448.841 693.034,446.918C692.544,446.361 691.109,446.157 690.581,446.592C689.429,447.54 690.245,447.738 690.804,449.077ZM429.79,471.278C434.137,473.578 432.211,468.585 430.542,468.716C428.766,468.855 429.514,469.604 429.79,471.278ZM640.928,541.801C640.996,541.611 641.734,539.546 640.58,539.298C638.225,538.792 637.779,543.807 640.928,541.801ZM561.014,480.515C559.803,479.221 559.64,478.084 558.422,479.434C557.76,480.168 558.81,485.939 561.014,480.515ZM562.62,439.519C562.135,437.837 562.199,437.076 560.605,437.744C559.232,438.32 559.794,443.722 562.62,439.519ZM556.192,588.488C554.603,584.103 552.342,589.194 553.759,590.106C555.375,591.145 555.537,590.354 556.192,588.488ZM553.64,579.545C554.132,583.47 557.433,580.388 556.086,578.861C555.011,577.643 554.718,578.263 553.64,579.545ZM527.509,409.426C532.238,408.146 527.997,405.908 526.703,406.782C525.072,407.885 525.834,408.416 527.509,409.426ZM563.371,422.469C563.024,420.788 563.174,420.105 561.492,420.473C559.603,420.886 560.77,426.388 563.371,422.469ZM554.919,622.426C553.729,621.276 553.631,620.341 552.482,621.482C551.513,622.443 553.416,627.145 554.919,622.426ZM480.225,557.533C483.69,561.983 482.889,556.33 482.205,555.933C480.745,555.087 480.736,555.943 480.225,557.533ZM501.195,593.728C505.496,596.538 503.51,591.499 502.584,591.283C500.578,590.815 500.483,591.78 501.195,593.728ZM326.382,528.386C326.619,526.643 327.086,526.538 326.224,525.827C324.858,524.7 322.212,528.853 326.382,528.386ZM536.455,408.874C540.886,407.135 535.579,405.112 534.931,406.717C534.467,407.867 535.094,407.685 536.455,408.874ZM558.771,464.439C559.121,464.698 559.124,465.282 559.474,465.542C561.693,467.185 562.69,461.598 559.489,462.478C558.557,462.734 558.973,463.015 558.771,464.439ZM662.845,507.808C662.923,507.62 663.775,505.539 662.606,505.277C660.198,504.738 659.573,509.449 662.845,507.808ZM321.5,552.499C326.414,552.123 322.118,549.03 320.869,549.946C319.462,550.978 320.237,551.302 321.5,552.499ZM561.203,472.457C560.683,470.582 560.355,469.786 558.88,470.965C557.469,472.092 559.286,476.613 561.203,472.457ZM555.346,614.495C554.482,612.522 553.806,611.716 552.546,613.525C552.127,614.127 553.328,619.031 555.346,614.495ZM524.315,628.561C522.78,627.597 522.685,626.859 521.822,627.795C520.548,629.178 523.94,632.984 524.315,628.561ZM458.458,629.594C463.919,628.917 459.607,626.892 459.382,626.833C456.974,626.208 456.661,627.788 458.458,629.594ZM427.969,462.327C426.705,461.248 426.62,460.264 425.44,461.438C424.121,462.75 427.998,467.207 427.969,462.327ZM689.808,464.631C689.558,462.923 690.145,462.075 688.458,462.238C687.061,462.373 685.694,468.254 689.808,464.631ZM453.54,507.515C453.181,505.864 453.233,505.853 453.152,505.732C452.454,504.689 448.67,504.951 451.635,508.238C452.736,508.193 452.72,508.237 453.54,507.515ZM569.565,409.271C571.282,408.99 571.955,409.164 571.666,407.461C571.341,405.54 566.045,406.285 569.565,409.271ZM556.792,572.617C556.52,570.994 557.227,570.163 555.491,570.214C553.823,570.263 552.857,575.818 556.792,572.617ZM491.028,570.758C490.879,570.605 489.024,568.706 488.384,570.426C487.644,572.415 491.395,574.931 491.028,570.758ZM528.357,635.556C527.285,634.326 527.003,633.669 525.956,634.91C524.71,636.386 528.164,639.611 528.357,635.556ZM557.74,555.493C556.728,554.204 556.919,553.526 555.71,553.966C554.935,554.247 554.445,559.894 557.74,555.493ZM328.565,556.344C333.251,556.103 329.133,552.658 327.863,553.844C326.937,554.708 327.67,554.823 328.565,556.344ZM517.643,622.432C519.319,623.474 520.22,624.509 520.422,622.485C520.501,621.695 517.82,617.028 517.643,622.432ZM667.469,500.477C667.671,498.55 668.411,497.297 666.533,497.879C664.484,498.514 663.879,502.988 667.469,500.477ZM558.117,547.494C557.163,545.708 556.665,544.882 555.454,546.472C554.661,547.512 556.75,551.804 558.117,547.494ZM675.945,486.836C676.479,484.939 676.429,484.051 674.488,484.457C673.706,484.621 671.182,489.232 675.945,486.836ZM440.776,484.333C436.496,481.24 438.616,486.339 438.633,486.354C440.318,487.77 440.494,486.453 440.776,484.333ZM554.577,630.482C553.42,629.119 552.953,628.302 551.984,629.844C551.29,630.947 553.537,635.492 554.577,630.482ZM623.573,569.544C623.481,567.94 624.046,567.183 622.493,567.276C620.564,567.392 620.291,572.108 623.573,569.544ZM597.245,611.325C597.482,609.65 598.099,608.993 596.472,608.867C595.302,608.777 592.382,613.723 597.245,611.325ZM554.333,639.451C554.059,637.719 554.158,637.015 552.508,637.518C550.931,638 551.539,643.116 554.333,639.451ZM764.45,517.554C764.835,517.553 765.119,518.027 765.504,518.026C768.721,518.021 765.02,512.642 763.966,515.716C763.917,515.86 764.002,515.852 764.45,517.554ZM283.849,652.63C285.37,657.27 286.688,653.764 286.705,653.525C286.875,651.036 285.44,650.706 283.849,652.63ZM383.501,587.499C388.618,589.152 385.213,585.177 384.501,585.16C382.846,585.119 383.461,585.893 383.501,587.499ZM303.576,572.549C303.475,570.894 304.138,570.137 302.51,570.125C300.704,570.113 299.747,575.237 303.576,572.549ZM300.512,580.507C300.493,578.808 301.203,578.019 299.504,577.989C297.721,577.958 296.786,583.333 300.512,580.507ZM437.441,617.58C442.937,617.561 438.81,615.04 438.587,615.019C436.453,614.817 436.355,615.802 437.441,617.58ZM342.602,564.367C347.584,564.935 343.753,561.556 342.672,561.893C341.114,562.378 342.019,562.895 342.602,564.367ZM634.657,422.262C640.149,422.638 635.512,419.083 634.547,419.616C633.106,420.413 633.888,420.775 634.657,422.262ZM495.547,647.434C493.894,647.497 493.14,646.903 493.181,648.508C493.189,648.825 497.605,653.42 495.547,647.434ZM436.75,477.385C434.792,475.831 433.194,476.387 434.197,478.678C434.289,478.888 435.956,481.894 436.75,477.385ZM476.055,550.602C479.282,553.644 478.83,548.825 477.479,548.706C476.036,548.578 476.519,549.273 476.055,550.602ZM619.148,576.327C619.17,574.498 619.12,573.753 617.385,574.309C616.014,574.748 616.317,579.646 619.148,576.327ZM339.857,509.839C340.443,508.363 341.111,507.748 339.518,507.452C337.327,507.046 336.625,511.22 339.857,509.839ZM484.704,565.285C489.175,566.145 486.041,562.082 484.714,562.825C483.71,563.387 484.316,563.646 484.704,565.285ZM606.074,597.372C605.652,595.773 606.069,594.985 604.431,595.278C602.46,595.631 603.635,600.904 606.074,597.372ZM531.649,644.823C532.692,643.154 533.244,642.476 531.358,641.885C531.133,641.815 526.116,643.062 531.649,644.823ZM636.689,548.587C636.493,546.988 637.043,546.228 635.487,546.4C633.716,546.596 633.468,551.458 636.689,548.587ZM430.525,613.477C435.331,615.36 432.397,611.222 431.505,611.188C429.914,611.129 430.484,611.903 430.525,613.477ZM580.002,613.227C583.487,607.12 587.327,600.806 593.329,590.404C597.785,582.684 574.135,577.536 569.38,580.364C567.687,581.371 565.837,628.236 565.672,632.406C568.639,635.195 570.406,629.582 572.29,626.373C579.802,613.575 579.8,613.585 580.002,613.227ZM321.113,665.404C321.518,656 317.73,655.465 321.754,648.646C326.829,640.048 344.279,640.45 345.373,639.35C350.494,634.201 325.496,629.895 313.751,639.814C293.71,656.737 313.6,682.49 321.113,665.404ZM616.202,435.575C615.908,434.913 613.131,428.683 608.572,430.701C602.52,433.378 607.714,437.388 612.864,445.235C618.916,449.107 616.251,435.843 616.202,435.575ZM487.132,589.418C487.751,581.153 480.975,579.881 478.889,585.629C475.277,595.585 476.4,595.9 477.553,597.016C484.806,595.784 486.25,591.579 487.132,589.418ZM477.431,448.814C481.49,449.489 484.298,451.571 483.23,447.562C480.866,438.695 469.314,435.061 468.475,442.497C468.436,442.846 468.233,444.646 470.595,446.349C472.889,448.003 473.048,447.52 477.431,448.814ZM388.793,497.57C390.204,491.666 390.432,491.723 390.163,490.56C388.081,481.575 374.483,490.672 384.715,502.3C388.349,506.43 388.493,499.722 388.793,497.57ZM654.132,521.198C654.363,519.692 654.859,519.322 653.436,518.74C652.448,518.336 649.176,522.8 654.132,521.198ZM423.42,454.603C421.82,454.48 421.097,453.879 421.078,455.47C421.066,456.565 425.177,459.182 423.42,454.603ZM759.168,509.405C760.83,513.959 762.033,510.616 762.075,510.375C762.503,507.917 761.064,507.881 759.168,509.405ZM322.447,534.489C321.701,533.181 322.035,532.395 320.592,532.776C318.895,533.224 319.956,538.001 322.447,534.489ZM460.557,420.667C459.631,422.279 458.672,423.017 460.525,423.411C461.274,423.571 465.471,421.477 460.557,420.667ZM377.489,470.402C378.664,469.6 379.047,469.739 378.802,468.408C378.464,466.572 374.093,468.875 377.489,470.402ZM492.744,579.344C495.788,581.922 495.724,577.855 494.577,577.367C492.827,576.624 492.613,577.394 492.744,579.344ZM306.809,564.625C306.479,563.076 307.026,562.328 305.494,562.428C304.089,562.52 302.977,567.625 306.809,564.625ZM545.481,405.845C544.216,406.289 544.059,406.071 543.953,406.675C543.375,409.973 548.613,408.315 546.655,406.359C546.353,406.057 545.783,406.147 545.481,405.845ZM784.319,544.402C784.197,542.554 784.238,541.781 782.41,542.319C781.142,542.692 781.254,546.976 784.319,544.402ZM290.043,621.249C290.078,619.49 290.153,618.788 288.362,619.13C286.816,619.424 287.179,624.138 290.043,621.249ZM470.358,535.581C468.858,534.86 468.803,534.325 468.081,535.09C466.91,536.334 470.394,539.55 470.358,535.581ZM366.65,480.646C366.604,478.851 367.18,477.975 365.441,478.155C364.243,478.279 362.727,482.466 366.65,480.646ZM350.233,497.308C350.31,495.401 350.197,494.66 348.356,495.255C347.282,495.602 347.025,499.776 350.233,497.308ZM404.558,599.213C409.01,597.935 404.364,595.913 403.532,596.541C402.095,597.626 403.35,597.803 404.558,599.213ZM645.16,535.168C645.571,533.718 646.193,533.562 645.269,532.78C643.796,531.532 641.438,535.9 645.16,535.168ZM403.792,450.792C404.257,449.384 404.912,448.952 403.536,448.438C401.095,447.527 400.924,451.813 403.792,450.792ZM684.369,444.859C688.606,443.711 684.425,441.696 683.673,442.637C682.82,443.704 683.539,443.743 684.369,444.859ZM431.525,435.638C431.7,435.481 434.478,432.978 431.484,432.7C431.25,432.679 427.446,432.886 431.525,435.638ZM617.635,416.834C618.711,415.363 619.393,414.658 617.612,414.224C617.409,414.175 612.055,415.335 617.635,416.834ZM577.681,642.615C577.509,640.99 578.082,640.152 576.472,640.31C575.058,640.449 573.746,645.346 577.681,642.615ZM641.573,424.413C646.03,424.747 643.803,422.512 643.633,422.352C642.715,421.489 640.78,422.317 640.923,423.415C640.974,423.809 641.521,424.02 641.573,424.413ZM649.501,427.494C654.37,426.321 649.792,424.294 648.845,424.945C647.369,425.96 648.164,426.367 649.501,427.494ZM314.142,549.321C314.047,547.614 314.076,546.996 312.456,547.367C310.721,547.764 311.131,552.253 314.142,549.321ZM664.507,434.069C664.763,433.761 665.361,433.914 665.617,433.605C667.485,431.359 661.403,430.229 662.983,433.213C663.048,433.337 663.096,433.277 664.507,434.069ZM464.388,530.633C464.777,530.599 465.09,531.091 465.478,531.057C468.325,530.813 464.879,525.875 463.9,528.67C463.846,528.823 463.936,528.816 464.388,530.633ZM562.278,447.504C561.654,446.213 561.739,445.818 560.33,446.07C558.591,446.381 560.71,451.265 562.278,447.504ZM775.786,529.437C774.684,528.292 774.641,527.413 773.424,528.41C772.546,529.13 774.107,534.421 775.786,529.437ZM507.713,599.415C506.643,598.517 506.668,597.771 505.552,598.579C504.204,599.556 506.835,603.236 507.713,599.415ZM472.382,637.648C472.771,637.625 473.09,638.074 473.479,638.051C476.546,637.871 473.028,633.418 471.879,635.7C471.347,636.756 471.843,636.659 472.382,637.648ZM425.234,438.362C425.135,436.609 425.154,435.933 423.445,436.356C421.905,436.738 422.27,441.036 425.234,438.362ZM415.641,440.595C415.721,442.982 416.664,444.021 418.1,442.164C418.242,441.979 420.065,438.814 415.641,440.595ZM349.604,568.334C351.758,568.55 352.945,568.063 351.537,566.467C351.395,566.306 347.129,563.22 349.604,568.334ZM558.768,531.516C557.733,530.118 557.93,529.338 556.687,529.906C556.308,530.079 554.666,536.529 558.768,531.516ZM741.355,489.712C741.745,489.671 742.086,490.11 742.475,490.069C745.361,489.764 741.956,485.502 740.693,487.629C740.044,488.723 740.667,488.676 741.355,489.712ZM484.517,416.364C488.791,414.849 485.654,413.729 485.434,413.668C485.38,413.653 480.539,413.754 484.517,416.364ZM335.348,515.474C334.377,513.92 333.918,513.31 332.816,514.742C332.641,514.969 332.352,520.241 335.348,515.474ZM632.292,555.384C632.385,553.035 631.366,551.9 629.92,553.845C629.785,554.026 627.771,557.935 632.292,555.384ZM593.158,618.132C593.714,616.355 594.394,615.507 592.523,615.374C591.494,615.3 587.835,619.287 593.158,618.132ZM627.823,562.691C628.307,560.877 628.324,560.121 626.478,560.394C625.143,560.592 623.697,565.932 627.823,562.691ZM600.7,413.169C605.248,413.505 601.911,409.789 600.563,410.631C599.202,411.481 599.985,411.792 600.7,413.169ZM734.864,483.276C737.765,485.932 738.317,481.682 736.681,481.082C734.81,480.396 734.775,481.27 734.864,483.276ZM607.818,590.375C607.984,590.557 610.63,593.454 610.777,589.516C610.786,589.269 609.308,585.315 607.818,590.375ZM370.679,580.176C375.113,580.403 371.108,576.324 369.812,577.776C368.944,578.748 369.725,578.792 370.679,580.176ZM614.715,583.657C614.599,581.881 615.25,580.968 613.452,581.134C612.087,581.26 610.703,586.269 614.715,583.657ZM424.601,610.203C429.408,609.619 424.954,606.453 423.696,607.689C422.611,608.756 423.561,608.807 424.601,610.203ZM479.356,641.642C483.481,643.644 482.04,639.364 480.555,639.197C478.722,638.992 478.995,639.833 479.356,641.642ZM511.668,606.357C510.717,605.876 510.757,605.409 509.785,605.943C507.252,607.337 512.151,610.896 512.136,607.534C512.134,607.112 511.669,606.779 511.668,606.357ZM515.676,662.268C520.738,662.799 516.866,658.855 515.565,659.606C514.304,660.335 515.134,660.631 515.676,662.268ZM555.531,606.502C554.65,605.206 554.946,604.6 553.629,604.888C551.797,605.289 553.457,610.04 555.531,606.502ZM508.672,658.226C512.688,658.39 509.156,654.265 507.939,655.865C507.302,656.703 507.843,656.734 508.672,658.226ZM519.442,410.257C520.473,408.806 521.38,408.625 520.262,407.801C518.852,406.762 514.957,409.57 519.442,410.257ZM553.449,408.8C557.964,407.113 553.406,405.383 552.39,406.398C551.234,407.554 552.213,407.644 553.449,408.8ZM345.288,503.353C345.383,501.786 346.02,501.147 344.421,500.919C343.194,500.744 340.605,505.546 345.288,503.353ZM446.912,500.207C450.695,502.278 449.411,497.613 447.543,497.748C445.908,497.866 446.588,498.574 446.912,500.207ZM377.29,583.891C381.117,584.868 379.544,580.979 377.437,581.219C375.479,581.441 376.121,582.306 377.29,583.891ZM488.388,643.633C486.542,643.386 485.422,642.652 485.843,644.502C486.102,645.638 490.502,648.633 488.388,643.633ZM310.26,557.295C310.433,555.731 310.956,555.323 309.437,554.736C308.704,554.453 304.761,558.685 310.26,557.295ZM497.119,586.888C501.316,588.659 499.35,584.042 497.438,584.274C496.006,584.448 497.032,586.696 497.119,586.888ZM697.53,453.42C702.652,452.657 697.888,449.88 696.79,450.812C695.432,451.963 696.248,452.239 697.53,453.42ZM471.775,543.42C473.451,544.687 474.394,545.596 474.62,543.524C474.64,543.34 474.811,541.765 473.499,541.502C471.94,541.19 472.344,541.998 471.775,543.42ZM601.578,604.557C601.652,602.756 602.4,601.777 600.552,601.91C599.025,602.02 597.824,607.014 601.578,604.557ZM728.452,477.536C732.251,480.03 731.344,475.215 729.523,475.121C727.816,475.033 728.431,475.854 728.452,477.536ZM502.557,651.387C501.075,651.555 500.326,650.946 500.365,652.501C500.419,654.627 505.094,654.225 502.557,651.387ZM335.539,560.42C340.472,559.994 335.969,556.893 334.93,557.892C334.101,558.689 334.701,558.747 335.539,560.42ZM363.655,576.137C367.883,576.009 364.059,572.246 362.859,573.76C361.871,575.006 362.492,575.112 363.655,576.137ZM703.683,457.283C709.387,458.447 705.008,454.828 704.494,454.809C702.758,454.741 703.321,455.559 703.683,457.283ZM557.166,563.527C556.835,563.249 556.98,562.614 556.649,562.336C555.507,561.377 554.701,562.446 554.602,562.578C553.624,563.875 556.089,567.869 557.166,563.527ZM451.454,625.572C453.483,625.444 454.667,625.224 453.364,623.597C452.733,622.809 448.648,621.907 451.454,625.572ZM286.221,661.495C285.526,659.546 284.808,658.865 283.591,660.558C283.038,661.329 284.52,665.774 286.221,661.495ZM777.602,537.446C780.839,540.4 780.569,535.844 779.549,535.419C777.738,534.664 777.669,535.508 777.602,537.446ZM419.394,447.604C417.483,447.326 417.454,447.189 417.335,447.304C417.2,447.435 416.458,448.151 417.321,449.651C417.438,449.853 420.051,452.243 419.394,447.604ZM586.525,380.277C592.486,381.759 596.341,376.942 611.43,384.251C614.536,385.207 615.808,384.834 615.112,381.675C609.326,375.678 604.108,368.206 589.389,375.717C584.508,378.208 586.488,380.116 586.525,380.277ZM463.459,389.248C466.845,390.961 475.349,397.392 473.93,389.616C473.285,386.082 471.833,371.101 462.274,373.448C457.446,374.633 453.662,381.47 459.43,386.388C460.982,387.711 461,387.59 463.459,389.248ZM490.891,380.362C496.17,364.548 480.153,366.466 477.788,372.724C476.268,376.746 481.235,390.278 481.408,390.459C484.068,393.235 489.676,382.385 490.891,380.362ZM579.065,365.655C575.975,360.976 566.328,357.245 564.748,371.583C564.396,374.77 562.524,384.495 567.389,381.71C582.154,373.259 579.579,367.588 579.065,365.655ZM529.246,377.98C542.655,378.939 527.946,368.261 517.281,370.472C507.527,372.493 499.614,382.823 507.349,380.747C518.115,377.857 518.06,377.309 529.246,377.98ZM361.271,485.43C361.023,484.239 361.441,483.977 360.454,483.609C357.736,482.596 358.366,487.774 360.482,486.466C360.851,486.238 360.901,485.658 361.271,485.43ZM397.265,455.292C397.428,453.774 397.876,453.35 396.443,452.9C395.963,452.75 391.759,456.495 397.265,455.292ZM656.46,430.585C661.474,429.732 657.572,427.98 657.354,427.923C655.07,427.316 654.913,428.821 656.46,430.585ZM722.664,472.262C727.576,472.545 724.427,470.052 724.232,469.94C722.225,468.788 721.7,470.151 722.664,472.262ZM465.444,633.583C469.883,633.461 466.377,630.927 465.345,631.274C463.845,631.778 464.617,632.285 465.444,633.583ZM391.149,459.402C390.588,457.991 391.013,457.274 389.49,457.454C387.379,457.703 388.801,462.645 391.149,459.402ZM444.476,621.524C449.909,621.69 445.794,619.062 445.578,619.041C443.675,618.86 443.992,619.725 444.476,621.524ZM469.611,420.716C470.594,419.29 471.291,418.682 469.647,418.21C469.499,418.168 463.52,419.571 469.611,420.716ZM438.497,432.122C439.938,431.318 439.999,431.385 440.054,431.254C441.258,428.346 435.544,429.352 437.378,431.607C437.637,431.925 438.238,431.803 438.497,432.122ZM492.511,414.455C497.274,413.304 493.635,411.84 493.416,411.784C490.963,411.151 490.619,412.851 492.511,414.455ZM563.444,408.441C563.587,406.212 563.287,405.246 561.299,406.262C561.082,406.373 558.946,408.592 563.444,408.441ZM286.065,669.52C284.833,668.417 284.73,667.318 283.55,668.546C282.971,669.149 283.61,674.086 286.065,669.52ZM295.266,597.353C295.289,595.815 295.913,595.263 294.403,594.994C293.203,594.781 290.753,599.333 295.266,597.353ZM288.288,630.064C288.427,629.918 289.754,628.519 288.455,627.561C287.114,626.573 284.076,629.91 288.288,630.064ZM710.043,461.836C713.117,463.355 712.45,459.322 710.556,459.664C709.121,459.922 709.645,460.463 710.043,461.836ZM609.445,415.028C610.415,413.865 611.418,413.784 610.311,412.709C609.576,411.995 605.234,412.993 609.445,415.028ZM454.543,425.535C454.492,423.96 455.095,423.205 453.503,423.225C453.174,423.229 448.885,427.13 454.543,425.535ZM579.343,409.373C579.086,405.055 575.936,408.159 576.786,409.232C577.514,410.152 577.676,409.641 579.343,409.373ZM716.587,467.374C720.297,467.35 717.354,463.878 716.11,465.162C715.512,465.779 715.936,465.855 716.587,467.374ZM372.318,475.274C372.659,473.603 373.177,473.385 372.258,472.904C370.944,472.217 368.137,475.792 372.318,475.274ZM670.616,437.343C675.378,437.551 671.714,434.529 670.676,434.913C669.195,435.46 670.067,435.922 670.616,437.343ZM585.461,410.601C589.819,409.789 586.927,408.208 586.722,408.122C584.434,407.163 583.851,408.718 585.461,410.601ZM318.141,541.435C317.864,540.372 318.197,540.147 317.354,539.786C314.582,538.598 315.397,544.171 317.532,542.542C317.867,542.287 317.806,541.691 318.141,541.435ZM384.248,465.174C384.714,463.696 385.459,463.432 384.339,462.733C382.99,461.892 379.936,465.58 384.248,465.174ZM677.311,440.836C679.211,440.427 680.331,440.382 679.133,438.806C679.001,438.632 674.163,435.722 677.311,440.836ZM625.885,417.527C624.446,415.932 623.838,414.763 622.914,416.704C622.808,416.927 621.982,421.082 625.885,417.527ZM397.581,595.371C400.083,595.349 400.779,593.654 398.44,592.781C398.236,592.705 396.157,591.929 397.581,595.371ZM356.622,572.325C361.936,572.464 357.497,569.508 356.676,569.837C355.237,570.413 356.019,570.823 356.622,572.325ZM291.308,613.348C291.713,609.163 289.531,611.207 289.373,611.363C286.463,614.23 291.09,613.388 291.308,613.348ZM771.336,522.547C770.292,521.275 769.966,520.573 768.965,521.866C768.097,522.986 770.424,526.948 771.336,522.547ZM501.497,410.101C500.222,411.23 499.131,411.369 500.453,412.556C500.576,412.666 501.517,413.511 502.523,412.524C503.706,411.362 502.693,411.271 501.497,410.101ZM287.039,645.377C286.531,644.079 286.967,643.412 285.506,643.538C284.791,643.6 282.939,648.141 287.039,645.377ZM293.255,605.342C293.26,603.92 293.964,603.394 292.616,603.165C291.864,603.037 288.652,606.412 293.255,605.342ZM585.259,630.36C585.4,628.836 586.101,628.113 584.55,628.092C583.984,628.085 579.858,632.484 585.259,630.36ZM287.751,636.395C286.708,635.64 286.724,635.013 285.64,635.714C284.639,636.362 286.687,640.335 287.751,636.395ZM355.526,491.524C355.492,489.661 355.605,489.623 355.489,489.512C353.746,487.848 351.935,492.062 354.536,491.994C354.901,491.984 355.161,491.533 355.526,491.524ZM594.609,411.628C594.595,411.215 595.124,410.908 595.11,410.496C595.063,409.066 593.628,409.165 593.459,409.177C593.243,409.192 589.722,411.227 594.609,411.628ZM582.195,635.339C582.096,633.645 582.042,632.704 580.57,633.617C580.409,633.717 577.416,638.141 582.195,635.339ZM330.379,522.425C330.28,521.055 330.944,520.438 329.549,520.29C328.636,520.193 326.014,524.013 330.379,522.425ZM573.677,648.575C573.365,647.199 573.899,646.538 572.51,646.609C571.171,646.677 570.267,651.164 573.677,648.575ZM570.36,655.586C568.179,653.811 568.31,653.06 565.512,653.559C559.052,654.714 559.758,666.092 559.632,667.491C559.869,669.36 559.912,670.522 561.404,669.33C571.865,660.978 570.713,656.85 570.36,655.586ZM456.453,616.907C466.755,616.443 469.553,603.85 463.616,605.921C453.023,609.614 452.905,609.602 452.414,610.434C449.665,615.093 455.863,616.749 456.453,616.907ZM608.116,572.676C606.883,571.497 607.096,571.202 605.447,570.877C604.312,570.652 593.731,572.625 593.586,572.701C585.635,576.897 610.419,586.228 608.116,572.676ZM728.586,500.531C728.796,499.778 730.725,492.882 725.591,491.235C717.012,488.484 722.091,504.393 722.548,506.48C723.781,512.118 728.326,501.157 728.586,500.531ZM639.408,450.096C639.981,449.929 645.048,448.458 646.325,447.313C646.571,447.093 648.315,445.531 647.737,443.429C645.735,436.155 634.076,443.069 632.846,449.549C632.246,452.71 638.957,450.216 639.408,450.096ZM513.095,432.547C512.826,431.974 510.65,427.348 505.468,430.456C501.487,432.843 501.908,442.726 502.526,443.482C503.977,445.256 512.268,438.618 513.095,432.547ZM753.016,519.568C748.901,509.356 736.373,519.121 736.832,520.461C736.964,520.846 737.387,521.086 737.519,521.471C746.944,523.495 751.996,527.545 753.016,519.568ZM358.631,519.272C359.504,519.516 359.591,520.405 371.584,517.758C373.358,517.366 373.29,515.691 372.27,514.744C365.213,508.195 351.846,511.181 358.631,519.272ZM317.777,603.438C317.384,601.956 316.878,598.58 315.186,596.814C311.603,593.073 301.188,601.393 316.377,609.743C321.632,612.633 318.113,604.488 317.777,603.438ZM282.1,609.556C278.679,600.591 267.678,606.797 273.683,614.274C274.352,614.659 281.548,618.788 282.1,609.556ZM485.958,401.379C482.224,393.016 471.062,399.531 478.703,407.073C479.791,407.308 486.581,409.697 485.958,401.379ZM309.159,535.604C307.612,532.843 307.702,532.241 304.502,532.231C303.478,532.229 301.372,532.73 300.495,534.497C296.632,542.285 310.268,546.284 309.159,535.604ZM354.206,477.538C353.237,474.764 353.401,474.367 350.475,473.591C350.112,473.495 347.8,472.882 345.971,474.92C340.195,481.356 353.922,488.179 354.206,477.538ZM703.57,440.578C708.494,434.873 701.983,432.196 701.587,432.121C693.811,430.648 693.586,445.76 703.57,440.578ZM562.458,395.427C567.216,391.812 563.536,388.432 562.361,387.789C555.84,384.225 552.502,398.338 562.458,395.427ZM410.052,428.789C409.617,428.346 404.643,423.282 402.314,429.423C399.698,436.321 413.022,437.931 410.052,428.789ZM395.021,434.198C391.85,431.069 383.561,432.376 383.066,433.342C381.984,435.451 383.997,434.152 386.174,434.876C389.467,435.973 391.549,434.861 392.582,435.183C394.038,435.636 393.971,435.206 395.021,434.198ZM457.615,513.434C457.439,513.278 454.995,511.104 454.673,513.541C454.499,514.862 458.158,519.213 457.615,513.434ZM559.889,506.533C559.413,504.293 559.084,502.768 557.535,504.534C556.383,505.846 557.691,511.842 559.889,506.533ZM680.737,479.565C680.352,477.375 680.338,476.295 678.357,477.291C677.24,477.853 677.278,483.991 680.737,479.565ZM552.95,597.522C554.855,602.752 556.487,597.426 555.584,596.427C554.367,595.079 554.193,596.181 552.95,597.522Z" style="fill:rgb(195,35,27);"/>
    </g>
    <g transform="matrix(1,0,0,1,3,-3)">
        <g>
            <g transform="matrix(19.894312,0,0,19.896419,-4529.340801,-5897.813567)">
                <path d="M530.112,685.209L533.611,685.618C542.997,680.883 545.296,689.381 562.697,679.875C572.601,674.465 587.754,677.075 602.502,677.427C610.963,677.628 610.802,683.639 610.778,684.51C610.756,685.35 610.601,691.134 607.465,694.474C607.289,694.661 606.845,694.492 606.735,694.725C606.735,694.726 607.243,696.147 603.624,696.697C599.514,697.322 603.56,706.939 601.708,709.544C598.815,713.615 597.988,713.114 598.165,713.5C598.467,714.16 599.452,714.328 599.755,714.988C596.294,716.704 594.632,714.778 593.686,718.553C590.302,732.056 578.744,726.198 577.907,728.651C577.419,730.08 573.853,740.53 561.591,738.139C556.088,737.066 556.337,732.653 551.579,735.632C546.883,738.572 539.753,736.582 536.883,733.099C534.277,729.937 533.549,733.121 529.479,732.919C519.272,732.41 518.404,724.079 517.771,722.337C516.714,719.425 507.728,725.205 500.382,712.566C495.215,703.678 499.074,699.991 530.112,685.209ZM528.47,721.194C524.292,724.816 529.889,724.405 530.191,723.382C530.678,721.733 530.042,721.83 528.47,721.194ZM545.43,728.763C547.939,728.099 548.993,727.562 547.288,725.694C546.581,724.919 541.246,725 545.43,728.763ZM584.03,719.103C584.103,718.824 584.876,715.85 582.49,715.839C580.209,715.827 578.806,721.541 584.03,719.103ZM588.085,698.505C585.879,691.136 578.945,693.325 571.811,688.078C562.542,681.261 570.662,694.741 570.959,695.235C581.435,712.626 587.501,701.904 588.085,698.505ZM513.606,710.67C517.072,706.628 512.11,706.326 511.185,707.024C508.275,709.222 509.967,710.875 513.606,710.67ZM595.493,707.321C597.384,706.419 598.202,705.842 596.486,704.521C595.714,703.927 591.012,705.47 595.493,707.321ZM603.636,687.604C603.902,685.394 604.778,684.584 602.618,684.114C601.17,683.799 599.69,684.983 599.779,686.476C599.985,689.971 603.366,687.779 603.636,687.604ZM532.716,715.045C548.118,719.223 544.82,693.837 543.66,693.262C540.328,691.611 542.287,695.678 533.492,704.492C527.093,710.904 531.492,713.878 532.716,715.045ZM565.429,727.196C565.257,727.377 562.726,730.018 565.527,730.318C565.776,730.344 571.322,729.281 565.429,727.196ZM568.027,716.347C568.173,714.812 569.954,710.799 560.102,693.715C552.29,680.166 552.986,696.614 553.107,703.508C553.505,726.366 564.953,723.109 568.027,716.347Z" style="fill:rgb(186,33,25);"/>
            </g>
            <g transform="matrix(19.894312,0,0,19.896419,-4529.340801,-5897.813567)">
                <path d="M459.034,538.744C459.495,538.911 460.038,538.432 460.5,538.6C462.398,539.288 461.386,545.661 457.432,546.112C456.919,546.171 451.841,546.75 451.125,547.5C449.255,549.458 449.118,549.113 446.5,549.938C446.201,550.032 446.565,550.546 443.355,552.285C442.313,552.849 440.202,553.993 431.5,561.173C429.381,562.921 422.893,572.239 422.196,573.239C421.112,574.797 421.384,575.252 419.471,575.5L418.262,574.362C418.549,573.891 420.027,570.667 425.422,564.428C446.206,540.393 461.6,546.156 459.034,538.744Z" style="fill:rgb(160,31,27);"/>
            </g>
            <g transform="matrix(19.894312,0,0,19.896419,-4529.340801,-5897.813567)">
                <path d="M461.155,406.689C461.728,406.634 461.928,405.663 462.5,405.608C463.102,405.55 465.266,412.29 460.494,412.47C451.243,412.817 451.521,414.099 442.5,416.269C435.22,418.019 425.919,428.635 423.079,426.5C422.863,426.337 419.99,425.78 420.922,421.5C421.111,420.63 421.31,420.537 421.39,420.5C422.087,420.177 422.084,420.96 422.771,420.641C420.095,429.181 431.127,418.69 434.724,416.981C455.729,406.997 461.197,411.997 461.155,406.689Z" style="fill:rgb(178,38,30);"/>
            </g>
            <g transform="matrix(19.894312,0,0,19.896419,-4529.340801,-5897.813567)">
                <path d="M575.958,394.358C580.504,398.078 588.445,391.805 607.367,398.861C613.697,401.221 618.347,406.2 618.109,400.668C618.571,401.063 619.463,400.105 619.925,400.5C619.964,400.534 620.636,404.507 620.011,405.103C616.902,408.063 616.374,406.421 612.668,404.18C610.82,403.062 603.053,399.471 598.5,398.926C593.865,398.373 593.93,398.208 593.531,398.248C589.478,398.652 573.892,398.925 574.5,395.663C574.62,395.022 575.838,394.999 575.958,394.358Z" style="fill:rgb(177,35,29);"/>
            </g>
            <g transform="matrix(19.894312,0,0,19.896419,-4529.340801,-5897.813567)">
                <path d="M339.069,492.296C339.136,492.421 340.542,492.647 340.264,494.5C340.2,494.929 339.964,496.502 336.341,498.243C335.846,498.481 335.245,497.647 330.421,503.425C330.377,503.478 326.507,506.798 325.28,509.352C323.237,513.606 321.611,513.932 321.085,515.353C320.952,515.712 321.266,516.162 321.087,516.5C320.881,516.888 320.15,516.882 320.048,517.309C319.946,517.736 320.515,518.071 320.607,518.5C320.89,519.824 318.488,519.812 318.341,523.425C318.312,524.132 316.646,526.525 315.5,526.635C315.088,526.674 309.764,527.184 310.781,524.5C310.962,524.024 311.601,523.822 311.781,523.346C314.204,525.713 314.661,523.88 315.946,520.69C323.848,501.075 330.392,500.42 339.069,492.296Z" style="fill:rgb(168,31,25);"/>
            </g>
            <g transform="matrix(19.894312,0,0,19.896419,-4529.340801,-5897.813567)">
                <path d="M625.289,626.114C625.429,626.272 627.045,628.093 627.045,628.093C626.846,628.286 625.743,629.357 624.21,630.091C623.897,630.24 623.455,629.895 623.17,630.093C622.776,630.366 622.797,631.02 622.427,631.326C621.842,631.812 621.057,631.993 620.405,632.386C611.928,637.498 611.595,636.911 610.97,637.5C604.559,643.544 603.196,641.51 599.289,645.24C597.004,647.422 595.196,646.571 592.436,649.363C590.587,651.233 587.923,648.922 587.959,648.5C588,648.03 588.626,647.744 588.666,647.274C592.833,647.509 603.008,638.786 625.289,626.114Z" style="fill:rgb(141,27,22);"/>
            </g>
            <g transform="matrix(19.894312,0,0,19.896419,-4529.340801,-5897.813567)">
                <path d="M457.277,366.044C458.018,366.421 458.759,366.798 459.5,367.175C456.226,372.175 454.538,370.424 452.382,373.42C451.692,374.379 451.465,374.14 451.131,375.253C450.863,376.149 448.855,380.173 448.815,380.5C448.337,384.397 446.463,380.727 442.5,380.768C441.349,380.78 440.146,379.323 439.5,379.548C439.077,379.695 438.893,380.239 438.49,380.436C437.969,380.69 434.242,379.723 433.447,380.118C430.692,381.488 430.624,380.804 427.5,381.049C426.8,381.104 426.2,381.656 425.5,381.711L424.287,380.097C439.248,373.02 444.073,381.006 446.448,378.455C449.834,374.817 446.71,371.858 457.277,366.044Z" style="fill:rgb(192,39,30);"/>
            </g>
            <g transform="matrix(19.894312,0,0,19.896419,-4529.340801,-5897.813567)">
                <path d="M393.129,537.774C393.674,537.944 394.273,537.331 394.818,537.5C397.08,538.203 394.996,545.412 391.676,544.069C388.48,542.777 388.413,543.094 385.5,541.258C385.005,540.945 375.479,537.586 372.5,538.588C369.629,539.553 369.651,539.405 367.133,541.056C366.289,541.609 366.171,540.758 365.321,541.169C364.746,541.446 364.581,542.458 363.943,542.5C363.265,542.544 362.925,541.326 362.247,541.37C373.509,525.687 396.485,549.323 393.129,537.774Z" style="fill:rgb(166,33,28);"/>
            </g>
            <g transform="matrix(19.894312,0,0,19.896419,-4529.340801,-5897.813567)">
                <path d="M655.131,495.391C656.616,497.201 657.297,497.067 656.734,498.5C655.054,502.778 646.154,508.719 643.482,508.35C642.282,508.184 638.19,510.285 635.494,509.718C634.69,509.549 625.565,507.629 625.753,506.5C625.851,505.916 626.743,505.678 626.84,505.093C632.441,507.746 649.679,509.097 655.131,495.391Z" style="fill:rgb(156,31,26);"/>
            </g>
            <g transform="matrix(19.894312,0,0,19.896419,-4529.340801,-5897.813567)">
                <path d="M319.888,486.292C321.78,486.485 321.777,486.444 321.932,486.5C322.868,486.84 322.022,490.262 321.5,490.668C320.927,491.114 319.991,490.978 319.486,491.5C319.094,491.905 319.363,492.645 319.104,493.145C318.126,495.041 317.11,493.796 315.677,495.5C304.666,508.593 306.509,514.448 302.5,511.035C300.969,509.732 301.754,508.385 301.721,508.268C305.584,509.035 306.042,504.85 307.695,501.609C313.55,490.132 318.924,492.687 319.888,486.292Z" style="fill:rgb(172,33,27);"/>
            </g>
            <g transform="matrix(19.894312,0,0,19.896419,-4529.340801,-5897.813567)">
                <path d="M475.719,467.193C475.16,467.493 475.059,468.354 474.5,468.653C474.196,468.816 473.845,468.36 473.5,468.383C471.762,468.497 471.794,468.592 471.554,468.377C471.145,468.01 471.068,467.287 470.571,467.054C470.053,466.81 464.898,467.118 464.405,467.148C461.664,467.312 455.177,475.397 454.419,475.369C451.798,475.273 451.972,475.824 449.5,476.359C448.305,476.618 442.305,479.299 446.633,474.004C459.005,475.201 458.805,457.093 475.719,467.193Z" style="fill:rgb(176,34,28);"/>
            </g>
            <g transform="matrix(19.894312,0,0,19.896419,-4529.340801,-5897.813567)">
                <path d="M732.977,421.287C736.597,421.688 736.141,422.954 735.308,426.5C735.189,427.009 736.149,429.016 733.479,431.482C733.269,431.676 732.942,431.129 730.438,433.352C729.569,434.124 706.604,441.357 711.241,431.404C711.281,431.688 710.141,433.909 713.498,433.763C722.008,433.393 736.401,432.29 732.977,421.287Z" style="fill:rgb(160,32,27);"/>
            </g>
            <g transform="matrix(19.894312,0,0,19.896419,-4529.340801,-5897.813567)">
                <path d="M589.95,525.481C590.431,525.915 591.412,525.066 591.893,525.5C591.91,525.515 593.979,532.136 585.5,533.474C575.872,534.994 576.593,537.824 577.701,547.5C577.809,548.444 577.952,548.434 577.904,548.5C577.278,549.365 576.82,548.717 576.187,549.592C575.495,546.342 574.641,542.129 576.038,536.377C578.35,526.865 588.813,535.269 589.95,525.481Z" style="fill:rgb(151,34,29);"/>
            </g>
            <g transform="matrix(19.894312,0,0,19.896419,-4529.340801,-5897.813567)">
                <path d="M293.139,537.747C293.271,537.794 295.616,536.284 295.374,540.5C295.279,542.159 293.554,543.142 292.256,543.193C291.707,543.215 288.378,544.928 285.337,546.019C281.363,547.444 280.901,547.39 280.503,547.343C278.714,547.131 275.279,550.008 271.009,546.5C270.477,546.063 270.482,546.047 270.5,545.992C270.858,544.875 271.396,545.293 271.774,544.113C279.027,547.678 293.419,540.251 293.337,538.505C293.325,538.244 293.151,538.008 293.139,537.747Z" style="fill:rgb(164,35,28);"/>
            </g>
            <g transform="matrix(19.894312,0,0,19.896419,-4529.340801,-5897.813567)">
                <path d="M580.002,613.227C580.382,613.861 581.437,613.866 581.816,614.5C582.592,615.796 580.594,615.366 573.174,631.292C572.945,631.783 571.821,634.196 568.385,636.088C567.871,636.371 564.546,634.317 564.603,633.5C564.638,632.991 565.637,632.915 565.672,632.406C568.639,635.195 570.406,629.582 572.29,626.373C579.802,613.575 579.8,613.585 580.002,613.227Z" style="fill:rgb(147,30,25);"/>
            </g>
            <g transform="matrix(19.894312,0,0,19.896419,-4529.340801,-5897.813567)">
                <path d="M401.158,564.098C401.248,564.293 404.962,566.188 397.322,570.126C397.034,570.275 394.578,571.541 393.501,571.504C391.36,571.431 391.633,572.728 389.514,572.574C388.275,572.484 388.045,574.033 379.694,572.119C375.982,571.269 378.625,569.311 378.636,569.104C390.611,571.833 394.777,568.179 401.158,564.098Z" style="fill:rgb(158,32,26);"/>
            </g>
            <g transform="matrix(19.894312,0,0,19.896419,-4529.340801,-5897.813567)">
                <path d="M545.038,480.224C545.257,480.819 546.229,480.905 546.449,481.5C546.659,482.071 546.463,482.769 546.175,483.306C545.958,483.709 545.265,483.691 545.053,484.097C544.88,484.431 545.331,484.875 545.179,485.219C544.581,486.571 542.646,488.163 542.386,488.377C542.14,488.579 541.665,488.203 541.434,488.421C540.897,488.925 541.231,489.172 540.52,489.529C539.218,490.185 539.669,490.739 538.328,491.243C538,491.366 537.594,490.959 537.286,491.123C536.855,491.353 536.829,492.074 536.386,492.278C536.031,492.441 535.594,491.916 535.235,492.068C534.807,492.25 534.714,492.858 534.346,493.143C534.008,493.405 533.737,492.759 529.45,495.307C528.675,495.768 527.67,495.49 527.521,495.448C525.752,494.959 526.112,496.112 525.703,496.115C525.256,496.118 525.201,495.357 524.849,495.081C524.499,494.806 523.657,494.945 523.647,494.5C523.626,493.649 524.801,493.064 524.781,492.213C533.439,495.127 543.881,481.71 545.038,480.224Z" style="fill:rgb(170,32,27);"/>
            </g>
            <g transform="matrix(19.894312,0,0,19.896419,-4529.340801,-5897.813567)">
                <path d="M651.646,467.037C651.027,467.416 651.119,468.509 650.5,468.888C650.151,469.101 649.956,468.255 645.5,469.98C643.821,470.63 643.629,470.078 642.36,471.269C642.151,471.465 640.86,472.675 639.284,473.1C638.917,473.199 638.425,472.795 638.145,473.051C637.878,473.295 638.392,473.865 638.152,474.136C637.6,474.761 637.164,474.035 636.178,475.184C634.956,476.606 634.864,476.505 634.252,478.26C633.837,479.449 630.657,481.777 630.5,481.704C629.895,481.422 629.751,480.51 629.146,480.229C631.443,477.376 638.974,464.143 651.646,467.037Z" style="fill:rgb(163,31,27);"/>
            </g>
            <g transform="matrix(19.894312,0,0,19.896419,-4529.340801,-5897.813567)">
                <path d="M425.337,480.559C429.934,482.986 427.28,486.094 427.199,487.394C427.199,487.394 425.284,489.952 425.117,490.174C424.56,490.584 424.004,490.994 423.447,491.404C421.258,494.039 420.544,492.742 417.394,494.269C416.432,494.734 416.425,493.866 415.395,494.172C414.812,494.345 414.874,494.431 410.262,498.303C409.551,498.9 409.568,498.909 409.5,498.875C408.468,498.36 409.123,497.735 408.095,497.222C415.6,487.335 427.826,492.964 425.337,480.559Z" style="fill:rgb(165,33,27);"/>
            </g>
            <g transform="matrix(19.894312,0,0,19.896419,-4529.340801,-5897.813567)">
                <path d="M542.197,391.776C542.709,391.949 543.282,391.328 543.795,391.5C544.737,391.817 544.49,396.025 544.134,396.197C543.713,396.4 538.06,398.454 530.5,396.366C527.521,395.544 523.142,395.697 522.5,395.72C520.613,395.786 520.624,396.103 520.5,395.999C519.602,395.244 520.291,394.828 519.439,394.072C518.975,393.661 518.877,394.56 518.456,394.187C538.049,392.057 544.001,398.747 542.197,391.776Z" style="fill:rgb(178,39,32);"/>
            </g>
            <g transform="matrix(19.894312,0,0,19.896419,-4529.340801,-5897.813567)">
                <path d="M484.555,358.974C481.741,364.29 473.749,367.054 473.368,367.257C471.076,368.478 471.005,367.678 468.5,367.417C464.85,367.038 464.871,365.402 461.5,366.773C461.349,366.835 461.352,366.803 459.5,367.175C458.759,366.798 458.018,366.421 457.277,366.044C464.282,362.697 470.107,366.546 472.289,365.167C478.148,361.463 477.708,360.604 484.555,358.974Z" style="fill:rgb(188,40,31);"/>
            </g>
            <g transform="matrix(19.894312,0,0,19.896419,-4529.340801,-5897.813567)">
                <path d="M298.733,620.028C300.476,620.431 315.109,623.82 321.105,620.23C321.536,620.856 322.568,620.874 322.998,621.5C323.934,622.86 317.578,625.607 314.5,624.698C311.586,623.837 305.587,625.141 302.5,623.791C297.5,621.604 297.5,621.605 297.5,621.602C297.567,620.939 298.666,620.691 298.733,620.028Z" style="fill:rgb(148,35,29);"/>
            </g>
            <g transform="matrix(19.894312,0,0,19.896419,-4529.340801,-5897.813567)">
                <path d="M418.262,574.362L419.471,575.5C419.246,576.129 419.785,576.871 419.561,577.5C419.28,578.288 418.448,578.768 418.043,579.5C417.755,580.022 415.935,583.31 415.309,586.434C415.063,587.664 412.344,593.337 409.5,591.907C407.735,591.019 407.554,591.847 405.765,591.003C403.939,590.142 405.231,589.634 406.602,588.23C409.782,588.747 410.667,590.398 411.764,587.622C414.499,580.701 414.569,580.782 418.262,574.362Z" style="fill:rgb(161,32,27);"/>
            </g>
            <g transform="matrix(19.894312,0,0,19.896419,-4529.340801,-5897.813567)">
                <path d="M794.074,483.248C794.727,484.225 795.253,483.532 795.9,484.5C795.947,484.57 795.994,484.64 795.58,485.5C791.677,493.619 771.636,489.448 771.781,487.5C771.818,487 772.61,486.77 772.647,486.27C788.379,490.652 793.018,484.621 794.074,483.248Z" style="fill:rgb(145,30,25);"/>
            </g>
            <g transform="matrix(19.894312,0,0,19.896419,-4529.340801,-5897.813567)">
                <path d="M540.538,450.243C540.298,450.45 539.839,449.884 539.599,450.091C539.043,450.57 539.052,451.515 538.5,451.999C537.709,452.692 531.104,448.815 526.359,452.229C524.211,453.775 524.215,453.59 522.114,455.129C520.544,456.28 520.667,456.463 520.5,456.46C519.881,456.448 519.698,455.274 519.079,455.262C524.716,448.17 526.683,446.453 540.538,450.243Z" style="fill:rgb(170,32,27);"/>
            </g>
            <g transform="matrix(19.894312,0,0,19.896419,-4529.340801,-5897.813567)">
                <path d="M715.108,412.435C716.128,413.537 717.766,413.426 716.13,416.5C715.137,418.368 715.058,418.319 715.036,418.5C714.901,419.608 714.452,419.308 714.055,420.337C713.915,420.699 714.585,421.091 714.42,421.443C713.584,423.226 712.882,422.658 712,424.5C710.752,427.106 709.716,426.862 709.325,427.283C709.273,427.339 707.415,429.892 707.25,430.12C706.922,430.571 707.206,431.519 706.676,431.692C706.186,431.852 705.902,431.012 705.5,430.69C703.639,429.198 704.735,428.444 704.59,428.019C707.925,426.535 713.3,419.011 715.108,412.435Z" style="fill:rgb(165,32,26);"/>
            </g>
            <g transform="matrix(19.894312,0,0,19.896419,-4529.340801,-5897.813567)">
                <path d="M753.016,519.568C753.208,519.798 752.854,520.238 753.047,520.468C753.329,520.806 757.314,522.861 752.368,526.235C752.164,526.375 752.142,526.21 749.396,527.068C746.219,528.06 741.838,525.313 739.5,524.335C738.305,523.834 737.895,523.581 737.764,523.5C735.983,522.399 737.581,521.983 737.519,521.471C746.944,523.495 751.996,527.545 753.016,519.568Z" style="fill:rgb(152,31,26);"/>
            </g>
            <g transform="matrix(19.894312,0,0,19.896419,-4529.340801,-5897.813567)">
                <path d="M455.079,602.306C455.235,602.564 458.258,603.065 454.5,605.793C448.573,610.094 437.924,607.08 437.5,605.924C437.253,605.25 438.848,604.746 438.601,604.072C442.078,604.763 449.55,606.879 455.079,602.306Z" style="fill:rgb(156,31,25);"/>
            </g>
            <g transform="matrix(19.894312,0,0,19.896419,-4529.340801,-5897.813567)">
                <path d="M383.457,661.504C383.498,661.552 384.829,661.116 386.153,666.5C387.613,672.435 387.912,675.516 384.452,675.235C382.334,675.064 377.442,675.51 375.5,674.1C374.956,673.705 374.99,673.561 375.004,673.5C375.228,672.552 375.773,672.942 375.982,672.056C377.936,672.969 377.931,672.882 381.513,672.796C385.82,672.694 384.756,670.552 383.457,661.504Z" style="fill:rgb(137,34,31);"/>
            </g>
            <g transform="matrix(19.894312,0,0,19.896419,-4529.340801,-5897.813567)">
                <path d="M558.064,362.749C558.521,362.903 559.043,362.408 559.5,362.563C559.992,362.73 563.42,372.225 559.697,379.5C559.103,380.66 561.331,383.772 559.404,383.412C559.145,383.363 559.236,383.24 557.103,381.057C558.188,378.483 559.91,367.58 558.064,362.749Z" style="fill:rgb(171,36,29);"/>
            </g>
            <g transform="matrix(19.894312,0,0,19.896419,-4529.340801,-5897.813567)">
                <path d="M400.329,607.426C400.673,607.991 401.654,607.935 401.998,608.5C402.446,609.236 399.458,612.882 399.179,613.222C397.902,614.78 395.813,619.903 395.305,620.382C394.452,621.187 394.488,621.158 394.097,622.262C394.05,622.393 393.61,623.635 392.882,623.5C392.19,623.372 391.831,622.436 391.139,622.307C393.367,617.92 393.029,617.82 400.329,607.426Z" style="fill:rgb(153,28,25);"/>
            </g>
            <g transform="matrix(19.894312,0,0,19.896419,-4529.340801,-5897.813567)">
                <path d="M662.286,559.608C662.767,559.578 663.019,558.856 663.5,558.825C663.546,558.822 669.244,569.738 658.5,570.349C654.106,570.598 653.634,568.909 653.52,568.5C653.364,567.944 654.827,567.763 654.672,567.207C660.204,569.597 664.276,566.229 662.286,559.608Z" style="fill:rgb(151,34,29);"/>
            </g>
            <g transform="matrix(19.894312,0,0,19.896419,-4529.340801,-5897.813567)">
                <path d="M282.1,609.556C282.76,609.541 283.114,608.516 283.774,608.5C284.186,608.49 284.245,609.176 284.5,609.5C286.005,611.41 283.502,617.997 277.529,618.142C276.896,618.158 276.225,618.317 275.628,618.105C275.436,618.036 275.899,617.608 275.726,617.5C275.064,617.086 274.181,617.156 273.5,616.775C272.464,616.195 272.491,615.814 272.5,615.696C272.576,614.654 273.611,615.262 273.683,614.274C274.352,614.659 281.548,618.788 282.1,609.556Z" style="fill:rgb(160,31,30);"/>
            </g>
            <g transform="matrix(19.894312,0,0,19.896419,-4529.340801,-5897.813567)">
                <path d="M485.958,401.379C488.431,402.764 488.292,403.106 488.047,404.5C487.53,407.451 488.286,407.898 486.332,409.268C485.837,409.614 481.924,412.357 478.792,409.5C477.131,407.984 478.712,407.322 478.703,407.073C479.791,407.308 486.581,409.697 485.958,401.379Z" style="fill:rgb(178,36,29);"/>
            </g>
            <g transform="matrix(19.894312,0,0,19.896419,-4529.340801,-5897.813567)">
                <path d="M487.132,589.418C487.575,589.961 488.491,589.957 488.934,590.5C489.264,590.905 487.75,596.063 485.197,597.09C483.334,597.838 483.526,598.508 481.5,598.286C480.635,598.191 479.642,598.803 479.5,598.891C479.295,599.017 476.451,600.77 476.5,598.65C476.515,598.002 477.538,597.664 477.553,597.016C484.806,595.784 486.25,591.579 487.132,589.418Z" style="fill:rgb(154,33,29);"/>
            </g>
            <g transform="matrix(19.894312,0,0,19.896419,-4529.340801,-5897.813567)">
                <path d="M341.107,582.132C341.277,582.58 342.647,582.229 342.009,584.5C341.589,585.997 339.958,586.499 337.338,591.425C336.726,592.577 336.27,592.26 336.067,593.5C335.959,594.158 336.344,594.934 335.991,595.5C335.62,596.095 334.537,595.953 334.166,596.548C334.312,588.145 335.391,588.297 341.107,582.132Z" style="fill:rgb(161,31,26);"/>
            </g>
            <g transform="matrix(19.894312,0,0,19.896419,-4529.340801,-5897.813567)">
                <path d="M739.664,542.151C739.581,542.2 739.502,543.958 737.5,543.452C736.072,543.092 735.506,544.182 733.541,544.155C732.897,544.146 727.627,544.073 725.5,544.378C725.131,544.431 724.817,545.077 724.5,544.88C723.551,544.29 724.301,543.759 723.361,543.048C722.905,542.703 722.951,543.709 722.439,543.322C731.947,540.442 732.062,540.499 739.664,542.151Z" style="fill:rgb(145,28,24);"/>
            </g>
            <g transform="matrix(19.894312,0,0,19.896419,-4529.340801,-5897.813567)">
                <path d="M579.089,568.671C579.574,569.11 580.383,569.061 580.869,569.5C581.571,570.134 581.255,574.933 577.497,574.466C573.949,574.026 573.922,574.554 570.5,573.405C570.247,573.321 567.616,572.437 567.5,571.95C567.351,571.326 567.995,570.681 567.846,570.056C571.213,571.762 579.325,574.195 579.089,568.671Z" style="fill:rgb(154,38,35);"/>
            </g>
            <g transform="matrix(19.894312,0,0,19.896419,-4529.340801,-5897.813567)">
                <path d="M616.202,435.575C616.678,435.793 617.295,435.281 617.77,435.5C618.214,435.704 617.39,435.981 618.947,441.5C619.231,442.506 617.839,444.564 618.101,445.5C618.608,447.309 619.376,448.19 617.422,448.227C615.571,448.262 615.483,449.709 614.022,448.5C613.926,448.42 613.874,448.767 612.5,448.162C611.097,447.545 612.073,447.123 612.864,445.235C618.916,449.107 616.251,435.843 616.202,435.575Z" style="fill:rgb(170,34,32);"/>
            </g>
            <g transform="matrix(19.894312,0,0,19.896419,-4529.340801,-5897.813567)">
                <path d="M638.956,379.445C641.982,381.93 642.186,381.817 642.072,382.364C642.019,382.617 641.445,382.254 641.304,382.47C640.694,383.402 641.863,383.552 641.253,384.479C640.981,384.892 640.306,384.952 640.082,385.393C640.005,385.547 640.389,385.619 639.643,387.5C638.099,391.394 636.903,389.262 636.005,389.27C637.927,384.399 638.458,384.617 638.956,379.445Z" style="fill:rgb(171,35,27);"/>
            </g>
            <g transform="matrix(19.894312,0,0,19.896419,-4529.340801,-5897.813567)">
                <path d="M750.951,474.534C751.662,474.807 752.278,473.226 752.989,473.5C754.515,474.087 751.202,484.165 749.5,481.155C749.309,480.817 751,479.843 748.858,479.021C746.87,478.259 747.091,477.671 747.155,477.5C747.379,476.907 748.386,476.867 748.609,476.274C750.319,476.228 750.356,476.093 750.951,474.534Z" style="fill:rgb(161,33,25);"/>
            </g>
            <g transform="matrix(19.894312,0,0,19.896419,-4529.340801,-5897.813567)">
                <path d="M544.268,549.396C544.429,549.707 545.618,549.497 545.356,551.5C545.153,553.061 544.674,552.778 544.051,554.241C543.905,554.584 544.322,555.002 544.191,555.35C544.029,555.781 543.435,555.941 543.253,556.364C542.956,557.055 543.11,557.243 542.369,557.332C540.634,557.541 540.086,556.146 540.048,556.126C542.308,552.741 542.318,552.873 544.268,549.396Z" style="fill:rgb(161,32,28);"/>
            </g>
            <g transform="matrix(19.894312,0,0,19.896419,-4529.340801,-5897.813567)">
                <path d="M453.54,507.515C460.401,506.61 454.372,512.045 452.688,511.154C451.112,510.319 451.515,509.991 451.635,508.238C452.736,508.193 452.72,508.237 453.54,507.515Z" style="fill:rgb(173,41,29);"/>
            </g>
            <g transform="matrix(19.894312,0,0,19.896419,-4529.340801,-5897.813567)">
                <path d="M360.654,619.634C360.241,617.169 357.043,612.069 360.458,612.581C361.025,612.666 362.87,616.029 361.707,617.618C361.599,617.765 361.629,617.767 360.654,619.634Z" style="fill:rgb(192,36,21);"/>
            </g>
            <g transform="matrix(19.894312,0,0,19.896419,-4529.340801,-5897.813567)">
                <path d="M511.109,495.319C511.21,495.605 513.745,496.714 511.263,499.15C509.328,501.051 509.376,501.02 509.181,501.142C508.995,501.258 509.05,501 507.336,499.128C509.536,497.487 509.506,497.523 511.109,495.319Z" style="fill:rgb(163,54,50);"/>
            </g>
            <g transform="matrix(19.894312,0,0,19.896419,-4529.340801,-5897.813567)">
                <path d="M413.96,415.722C416.692,412.807 416.557,417.102 416.587,417.494C416.804,420.339 414.773,419.627 414.6,419.327C414.297,418.803 414.542,418.084 414.278,417.539C414.041,417.05 413.252,416.889 413.158,416.353C413.1,416.018 414.018,416.057 413.96,415.722Z" style="fill:rgb(224,35,32);"/>
            </g>
            <g transform="matrix(19.894312,0,0,19.896419,-4529.340801,-5897.813567)">
                <path d="M374.056,613.267C374.11,613.368 375.701,613.58 375.251,615.5C374.982,616.648 374.511,615.915 374.194,616.088C373.829,616.288 373.869,616.918 373.513,617.132C373.368,617.22 373.403,617.169 372.148,616.5C370.67,615.712 370.579,615.966 370.5,615.848C369.99,615.083 371.145,614.994 370.667,614.276C372.573,614.595 372.62,614.506 374.056,613.267Z" style="fill:rgb(158,56,52);"/>
            </g>
            <g transform="matrix(19.894312,0,0,19.896419,-4529.340801,-5897.813567)">
                <path d="M685.481,395.486C685.507,394.408 685.678,394.502 685.529,393.505C685.3,391.967 686.137,392.386 687.473,393.003C690.936,394.601 685.642,395.47 685.481,395.486Z" style="fill:rgb(207,39,19);"/>
            </g>
            <g transform="matrix(19.894312,0,0,19.896419,-4529.340801,-5897.813567)">
                <path d="M355.238,466.534C354.078,465.586 352.875,465.89 353.444,464.446C353.525,464.241 355.687,462.45 355.238,466.534Z" style="fill:rgb(212,38,30);"/>
            </g>
            <g transform="matrix(19.894312,0,0,19.896419,-4529.340801,-5897.813567)">
                <path d="M334.049,523.555C335.498,522.909 335.489,521.228 336.343,522.531C337.095,523.677 336.484,524.315 336.379,524.424C335.368,525.478 335.288,524.524 334.049,523.555Z" style="fill:rgb(203,38,29);"/>
            </g>
            <g transform="matrix(19.894312,0,0,19.896419,-4529.340801,-5897.813567)">
                <path d="M345.167,604.496C344.725,604.445 345.074,605.772 344.632,605.72C343.444,605.582 342.71,602.248 344.37,603.655C344.664,603.905 344.872,604.247 345.167,604.496Z" style="fill:rgb(205,31,28);"/>
            </g>
            <g transform="matrix(19.894312,0,0,19.896419,-4529.340801,-5897.813567)">
                <path d="M661.462,403.872C659.763,403.526 658.437,403.935 659.406,402.485C660.286,401.171 660.104,402.956 661.462,403.872Z" style="fill:rgb(194,41,25);"/>
            </g>
            <g transform="matrix(19.894312,0,0,19.896419,-4529.340801,-5897.813567)">
                <path d="M517.469,718.748C519.05,719.443 518.964,719.479 520.173,720.684C519.928,720.507 519.511,720.89 519.266,720.713C519.093,720.589 519.132,720.568 517.469,718.748Z" style="fill:rgb(161,26,20);"/>
            </g>
            <g transform="matrix(19.894312,0,0,19.896419,-4529.340801,-5897.813567)">
                <path d="M387.093,519.069C384.678,519.741 384.683,519.376 384.685,519.184C384.706,517.606 385.541,519.143 387.093,519.069Z" style="fill:rgb(211,36,26);"/>
            </g>
            <g transform="matrix(19.894312,0,0,19.896419,-4529.340801,-5897.813567)">
                <path d="M537.381,718.123C539.166,717.545 539.165,717.42 539.305,717.5C540.116,717.963 537.543,718.113 537.381,718.123Z" style="fill:rgb(168,26,20);"/>
            </g>
            <g transform="matrix(19.894312,0,0,19.896419,-4529.340801,-5897.813567)">
                <path d="M589.52,496.22C589.2,496.192 588.878,496.28 588.559,496.252C588.473,496.244 586.733,496.093 587.797,495.5C587.797,495.5 589.382,496.162 589.52,496.22Z" style="fill:rgb(190,33,21);"/>
            </g>
            <g transform="matrix(19.894312,0,0,19.896419,-4529.340801,-5897.813567)">
                <path d="M313.5,673.078C311.905,673.188 311.833,673.325 311.784,673.196C311.348,672.047 312.28,673.162 313.5,673.078Z" style="fill:rgb(159,28,20);"/>
            </g>
            <g transform="matrix(19.894312,0,0,19.896419,-4530.317744,-5897.48935)">
                <path d="M712.77,595.984C710.27,597.467 700.944,602.497 698.65,603.773C684.238,611.793 586.235,667.353 575.764,671.917C573.748,672.795 574.349,674.467 576.506,674.044C581.358,673.092 601.753,673.635 607.54,674.23C616.187,675.119 617.468,692.266 606.418,698.335C601.098,701.257 610.725,708.319 599.755,714.988C599.452,714.328 598.467,714.16 598.165,713.5C597.988,713.114 598.815,713.615 601.708,709.544C603.56,706.939 599.514,697.322 603.624,696.697C607.243,696.147 606.735,694.726 606.735,694.725C606.845,694.492 607.289,694.661 607.465,694.474C610.601,691.134 610.756,685.35 610.778,684.51C610.802,683.639 610.963,677.628 602.502,677.427C587.754,677.075 572.601,674.465 562.697,679.875C545.296,689.381 542.997,680.883 533.611,685.618C532.445,685.482 531.279,685.345 530.112,685.209C528.547,683.941 528.542,683.955 526.59,684.088C518.046,684.672 398.945,683.197 369.5,682.491C370.182,681.865 370.549,679.194 388.503,679.677C403.364,680.076 403.307,680.45 404.5,680.899C405.978,681.455 420.305,681.421 420.5,681.399C424.953,680.902 434.874,679.795 476.501,680.443C528.093,681.247 528.051,681.056 532.531,681.229C550.951,681.943 551.768,683.192 567.437,673.396C569.257,672.259 574.261,670.705 575.48,669.467C576.727,668.2 583.83,664.131 584.578,663.702C586.73,662.47 587.801,663.635 589.383,661.309C589.597,660.994 602.065,653.82 603.482,653.461C606.785,652.623 606.394,652.018 609.328,650.216C618.376,644.661 632.976,636.908 634.369,636.222C642.246,632.342 641.88,631.801 649.678,627.815C657.085,624.028 656.842,623.706 657.545,623.572C659.342,623.228 659.011,622.69 660.631,621.765C666.748,618.27 667.068,619.031 667.594,618.727C668.888,617.979 668.302,617.373 669.615,616.66C679.739,611.167 679.591,610.912 680.519,610.537C686.424,608.153 700.281,599.05 703.589,597.671C707.301,596.123 706.624,593.857 710.5,594.666C711.832,594.944 711.575,595.29 712.77,595.984Z" style="fill:rgb(129,25,20);"/>
            </g>
        </g>
        <g transform="matrix(19.894312,0,0,19.896419,-4529.340801,-5897.813567)">
            <path d="M586.726,380.226C592.687,381.708 596.543,376.892 611.631,384.201C610.526,385.292 610.618,387.136 606.637,385.172C601.697,382.735 601.575,383.251 599.523,383.127C595.44,382.881 595.485,382.563 591.478,383.237C588.859,383.678 585.887,382.14 585.959,381.5C586.014,381.008 586.67,380.719 586.726,380.226Z" style="fill:rgb(177,36,29);"/>
        </g>
    </g>
</svg>
