<?xml version="1.0" encoding="UTF-8" standalone="no"?>
<!DOCTYPE svg PUBLIC "-//W3C//DTD SVG 1.1//EN" "http://www.w3.org/Graphics/SVG/1.1/DTD/svg11.dtd">
<svg width="100%" height="100%" viewBox="0 0 922 1646" version="1.1" xmlns="http://www.w3.org/2000/svg" xmlns:xlink="http://www.w3.org/1999/xlink" xml:space="preserve" xmlns:serif="http://www.serif.com/" style="fill-rule:evenodd;clip-rule:evenodd;stroke-linejoin:round;stroke-miterlimit:2;">
    <g transform="matrix(12.550802,0,0,12.550802,-2682.392256,-1982.372535)">
        <path d="M223.5,288.908C222.712,288.905 214.51,289.698 213.823,287.452C212.641,283.59 222.283,286.267 224.768,277.578C226.402,271.865 238.938,206.142 241.515,194.503C244.942,179.031 244.282,179.006 247.688,163.549C251.448,146.484 254.034,172.167 257.962,190.403C265.422,225.032 273.58,273.141 276.716,279.385C280.019,285.961 290.003,284.649 286.38,288.384C286.305,288.461 286.324,288.995 260.492,288.908C257.276,288.897 256.092,285.613 260.446,285.004C273.393,283.194 266.9,271.502 263.335,250.528C261.927,242.248 261.235,240.844 259.474,240.808C236.856,240.347 236.209,240.716 235.779,242.568C235.191,245.104 235.305,245.106 229.373,274.477C226.674,287.843 243.86,283.257 239.313,288.33C238.589,289.137 233.488,288.909 223.5,288.908ZM247.957,178.838C246.798,192.331 235.831,235.842 237.826,237.025C237.921,237.081 259.537,238.102 260.124,236.377C260.752,234.535 253.665,205.685 250.079,182.598C249.452,178.559 248.765,178.817 247.957,178.838Z"/>
    </g>
</svg>
