<?xml version="1.0" encoding="UTF-8" standalone="no"?>
<!DOCTYPE svg PUBLIC "-//W3C//DTD SVG 1.1//EN" "http://www.w3.org/Graphics/SVG/1.1/DTD/svg11.dtd">
<svg width="100%" height="100%" viewBox="0 0 11812 3544" version="1.1" xmlns="http://www.w3.org/2000/svg" xmlns:xlink="http://www.w3.org/1999/xlink" xml:space="preserve" xmlns:serif="http://www.serif.com/" style="fill-rule:evenodd;clip-rule:evenodd;stroke-linejoin:round;stroke-miterlimit:2;">
    <g transform="matrix(12.162843,0,0,12.162843,-316.391784,-8689.590239)">
        <path d="M223.699,852.712C223.066,853.765 212.777,870.915 210.005,859.671C209.018,855.668 207.538,862.361 198.923,874.793C197.987,876.143 183.823,896.582 180.343,883.544C178.093,875.113 186.262,851.146 187.185,848.438C188.744,843.863 181.213,851.228 175.487,850.744C169.368,850.227 171.601,854.012 163.085,865.152C156.436,873.85 146.34,874.902 143.953,857.396C142.794,848.893 134.746,870.051 128.572,866.358C119.98,861.22 136.682,824.633 149.094,838.846C150.942,840.962 149.986,845.424 145.42,841.593C135.793,833.516 126.424,868.286 132.751,859.794C144.016,844.675 145.061,844.804 146.321,845.729C148.907,847.627 146.577,882.498 162.895,857.764C170.42,846.356 167.919,845.565 167.311,843.546C164.048,832.702 185.745,811.977 183.854,828.554C182.946,836.514 169.759,851.22 182.261,844.068C182.35,844.017 188.902,839.042 191.655,840.202C195.937,842.007 182.469,873.25 184.381,881.538C187.01,892.933 214.862,835.294 219.822,831.936C230.761,824.532 236.413,836.524 230.465,835.758C228.794,835.543 221.667,828.135 214.989,849.642C214.807,850.227 211.846,859.765 215.376,857.29C217.838,855.564 228.108,834.679 230.706,840.377C232.114,843.466 226.843,862.298 229.475,862.374C229.639,862.379 233.706,858.3 251.605,846.668C256.815,843.282 263.558,829.643 272.367,838.632C275.8,842.135 272.306,844.256 269.729,842.229C269.303,841.895 264.839,836.026 258.762,846.649C254.977,853.263 251.482,865.997 256.899,858.933C267.53,845.067 268.116,844.995 269.497,845.507C272.798,846.73 270.093,885.068 288.077,855.245C289.188,853.402 293.551,842.756 296.025,846.838C298.399,850.755 275.298,888.961 268.318,861.551C267.136,856.91 267.787,852.136 265.089,856.048C257.967,866.372 249.574,871.591 249.979,860.512C250.112,856.848 252.828,850.42 248.319,854.195C246.74,855.517 239.552,859.75 230.413,867.393C223.177,873.444 228.333,878.458 216.798,915.594C215.741,918.997 203.393,958.749 189.378,950.693C187.541,949.637 174.348,933.996 196.057,899.22C214.396,869.844 221.691,874.407 223.726,863.548C223.876,862.749 223.848,862.805 225.37,853.52L224.613,851.988C224.225,852.016 224.086,852.683 223.699,852.712ZM189.002,927.413C188.777,929.02 186.179,947.563 193.477,947.186C201.783,946.758 212.914,917.541 217.774,895.572C221.907,876.89 222.164,875.983 220.585,875.692C220.476,875.672 220.535,875.783 219.645,876.696C191.106,905.99 189.023,927.33 189.002,927.413Z"/>
    </g>
    <g transform="matrix(12.162843,0,0,12.162843,-316.391784,-8689.590239)">
        <path d="M862.753,849.475C863.376,850.954 863.286,851.076 863.423,851.067C863.815,851.04 863.935,850.338 864.326,850.311C864.624,849.755 867.053,845.221 869.401,844.271C876.735,841.304 878.621,851.571 879.982,855.33C884.427,867.604 889.118,858.382 894.982,848.797C902.763,836.081 909.307,840.188 908.875,847.542C908.564,852.831 903.997,851.933 904.394,848.496C905.748,836.759 894.137,856.895 897.201,867.591C902.385,885.694 925.459,847.061 926.794,845.803C932.358,840.559 933.783,834.989 941.432,835.924C948.246,836.758 949.088,846.503 943.67,842.291C932.728,833.783 927.734,860.219 927.811,860.393C929.656,864.613 943.981,835.821 944.922,848.466C948.087,890.98 964.061,847.271 967.396,846.234C978.626,842.743 945.635,897.35 941.261,855.58C940.958,852.682 937.393,857.815 934.909,860.833C924.843,873.062 923.846,862.312 923.896,861.431C923.907,861.234 924.182,856.376 921.959,859.902C907.49,882.843 896.235,878.2 893.431,870.526C892.195,867.144 893.294,866.985 892.326,863.536C891.648,861.125 889.022,864.86 886.531,865.602C877.713,868.229 874.841,853.733 874.425,852.523C869.112,837.054 859.995,874.483 855.505,874.395C850.96,874.306 855.903,860.991 856.323,859.492C856.193,859.181 856.637,858.809 856.507,858.498C856.116,857.562 855.637,857.59 855.531,857.597C854.761,857.642 855.42,858.562 854.592,858.611C838.331,882.012 822.123,876.598 824.818,858.467C825.698,852.546 817.597,865.223 809.407,860.642C805.909,858.685 805.313,851.477 805.242,850.611C805.031,850.462 804.82,850.313 804.609,850.164C804.358,850.249 804.1,849.843 803.849,849.929C803.536,850.035 798.77,864.402 794.349,866.023C786.92,868.748 788.964,851.751 787.5,851.773C785.996,851.796 776.704,869.13 775.864,870.697C770.935,879.894 769.402,872.019 769.422,871.5C769.58,867.375 770.94,867.713 771.216,863.548C771.228,863.367 770.833,861.116 768.98,863.952C760.546,876.852 751.191,872.071 749.599,857.483C748.705,849.296 743.996,862.233 738.574,865.61C722.948,875.342 737.606,824.759 753.336,837.707C757.868,841.437 754.337,844.291 751.717,842.242C741.154,833.983 735.362,860.308 736.26,860.767C737.596,861.451 737.415,860.582 739.802,857.767C748.856,847.084 748.456,845.317 750.483,845.274C753.592,845.207 753.278,852.136 753.319,852.52C756.794,884.715 770.48,852.948 775.62,845.582C777.282,843.2 778.94,833.885 782.432,835.628C785.648,837.233 775.641,857.148 775.613,859.493C775.557,864.232 778.883,856.207 783.837,848.729C794.812,832.163 791.98,851.992 792.614,859.457C793.032,864.382 794.527,858.742 799.821,848.67C809.3,830.636 809.263,850.685 809.873,853.417C811.788,861.993 824.627,852.969 828.577,843.534C837.678,821.79 844.079,828.906 844.528,830.492C846.503,837.465 832.417,849.079 831.757,849.735C828.397,853.07 823.521,884.72 846.495,861.495C864.502,843.292 860.664,835.573 864.581,836.12C868.195,836.625 863.66,847.055 862.753,849.475Z" style="fill:rgb(181,6,6);"/>
    </g>
    <g transform="matrix(12.162843,0,0,12.162843,-316.391784,-8689.590239)">
        <path d="M742.538,761.952C743.428,761.915 752.359,761.544 753.578,763.434C756.499,767.963 749.84,772.233 749.547,772.538C749.171,772.929 749.745,784.472 740.077,802.272C736.147,809.507 733.001,814.486 732.879,814.709C730.822,818.483 715.326,890.135 713.332,903.475C712.497,909.066 715.052,909.384 712.588,914.552C712.354,915.042 707.231,919.149 708.095,909.452C709.422,894.568 723.982,831.276 724.182,830.428C736.046,780.015 739.868,780.463 738.561,777.468C737.041,773.985 738.549,773.928 743.317,771.182C760.1,761.515 731.458,767.948 730.425,768.18C699.902,775.034 699.462,776.969 698.867,779.587C697.566,785.309 682.829,850.118 683.699,851.358C684.607,852.653 708.982,845.014 707.707,851.551C707.212,854.091 685.79,854.055 682.518,857.516C680.779,859.356 677.049,881.428 676.694,883.531C675.338,891.557 669.69,915.874 671.367,916.66C672.059,916.985 672.872,917.064 673.506,917.491C675.574,918.886 672.173,925.565 670.207,927.099C658.867,935.942 674.329,875.373 676.732,861.518C678.09,853.687 651.001,874.381 649.532,874.092C643.659,872.934 654.545,862.778 675.593,854.752C679.615,853.218 678.213,851.79 685.667,819.538C694.45,781.536 695.582,778.576 692.517,779.627C671.305,786.902 651.647,799.106 648.304,801.181C642.07,805.051 642.671,799.87 643.784,798.822C652.639,790.484 688.602,776.468 692.658,774.887C698.757,772.509 694.89,766.496 698.554,765.677C701.464,765.027 700.279,766.861 700.753,770.461C701.306,774.67 709.643,765.754 742.538,761.952Z" style="fill:rgb(180,6,7);"/>
    </g>
    <g transform="matrix(12.162843,0,0,12.162843,-316.391784,-8689.590239)">
        <path d="M418.023,855.655C413.35,856.672 410.114,871.859 401.453,870.861C392.422,869.82 400.174,852.441 394.579,859.581C393.748,860.642 387.362,868.792 381.385,870.052C369.029,872.658 373.397,854.744 373.429,853.51C373.494,851.037 369.894,854.315 368.316,855.122C354.603,862.133 349.165,849.237 347.919,852.698C346.975,855.322 339.071,877.286 328.597,881.712C310.822,889.224 327.034,839.136 329.466,838.411C335.723,836.544 328.209,851.236 325.931,863.573C319.629,897.7 342.621,859.912 345.076,847.415C345.177,846.901 347.543,834.863 351.016,844.65C357.821,863.826 372.887,843.713 377.509,844.461C381.896,845.17 372.167,868.195 380.549,865.651C387.348,863.586 400.337,845.524 400.464,845.448C404.276,843.153 412.413,831.558 418.677,839.346C420.161,841.19 420.629,839.716 421.14,837.413C426.431,813.558 434.344,786.407 439.478,783.468C451.194,776.763 436.309,818.815 426.164,839.321C422.017,847.703 412.973,906.326 414.68,908.36C420.332,915.093 411.818,915.52 411.537,915.416C406.204,913.43 415.577,865.004 418.023,855.655ZM435.556,805.517C435.82,804.807 438.346,798.005 438.468,796.504C438.783,792.659 436.235,796.202 434.896,800.605C429.909,817.001 429.348,817.629 429.806,818.263C431.675,820.848 434.335,807.981 435.556,805.517Z"/>
    </g>
    <g transform="matrix(12.162843,0,0,12.162843,-316.391784,-8689.590239)">
        <path d="M597.491,811.035C595.814,811.069 589.137,809.925 588.379,813.471C582.054,843.076 575.356,872.311 574.185,877.419C574.18,877.444 565.242,922.001 565.974,924.407C566.173,925.06 568.378,932.305 563.504,932.574C558.504,932.85 559.883,929.324 571.236,870.452C574.74,852.279 584.691,812.697 583.375,811.678C581.719,810.396 547.136,814.1 546.231,810.592C545.543,807.925 547.42,807.612 580.489,807.089C587.443,806.979 586.095,804.343 587.789,797.58C589.099,792.347 590.677,781.256 594.232,782.963C598.527,785.025 586.323,806.92 592.483,806.839C612.652,806.575 668.356,803.352 660.201,811.205C658.889,812.469 657.424,809.971 625.5,810.522C598.651,810.985 598.663,811.003 597.491,811.035Z"/>
    </g>
    <g transform="matrix(12.162843,0,0,12.162843,-316.391784,-8689.590239)">
        <path d="M105.228,776.91C104.817,776.586 104.912,775.841 104.5,775.518C102.862,774.23 76.992,863.908 68.245,904.453C62.491,931.122 109.1,886.577 137.51,884.686C142.486,884.355 141.888,888.646 138.457,889.021C107.334,892.416 67.327,934.106 63.811,910.458C62.202,899.638 96.548,775.57 103.671,766.63C110.172,758.469 112.223,781.505 105.228,776.91Z"/>
    </g>
    <g transform="matrix(12.162843,0,0,12.162843,-316.391784,-8689.590239)">
        <path d="M501.138,855.405C502.02,852.67 504.63,841.228 512.621,836.73C516.899,834.321 520.951,837.039 521.546,837.437C525.585,840.146 523.996,844.794 519.943,842.013C514.673,838.397 510.501,840.67 505.689,855.565C499.926,873.403 515.951,844.69 519.537,845.292C523.267,845.918 521.202,869.122 528.536,866.592C536.63,863.798 542.376,842.723 546.405,846.602C549.26,849.35 530.645,881.425 521.766,868.317C518.638,863.698 517.734,855.37 517.713,855.327C516.951,853.764 514.618,857.363 509.949,862.889C509.352,863.595 497.712,874.902 501.138,855.405Z"/>
    </g>
    <g transform="matrix(12.162843,0,0,12.162843,-316.391784,-8689.590239)">
        <path d="M458.625,870.931C444.274,873.675 449.391,849.567 444.709,855.697C444.08,856.52 435.232,870.717 430.52,865.482C424.832,859.162 439.695,825.058 452.151,838.81C454.403,841.297 452.396,844.43 449.561,842.416C448.485,841.652 441.177,833.678 434.077,857.412C434.009,857.641 431.743,865.218 435.789,859.856C447.153,844.798 448.067,844.804 449.366,845.686C451.664,847.244 450.266,883.724 467.062,856.236C467.401,855.681 473.856,841.354 475.865,847.36C476.253,848.522 468.653,867.175 458.625,870.931Z"/>
    </g>
    <g transform="matrix(12.162843,0,0,12.162843,-316.391784,-8689.590239)">
        <path d="M585.071,873.497C586.243,857.122 592.796,838.781 594.461,838.373C601.492,836.65 591.752,849.208 589.501,873.5C588.742,881.683 595.167,874.855 595.501,874.501C608.196,861.011 610.355,841.722 612.395,841.196C621.182,838.929 606.963,871.579 596.175,880.094C585.723,888.344 585.117,874.529 585.071,873.497Z"/>
    </g>
    <g transform="matrix(12.162843,0,0,12.162843,-316.391784,-8689.590239)">
        <path d="M406.759,862.707C393.739,876.745 403.887,841.224 413.499,841.225C415.148,841.225 417.657,845.707 415.01,850.203C411.817,855.626 407.456,861.732 406.759,862.707Z" style="fill:rgb(252,252,252);"/>
    </g>
    <g transform="matrix(12.162843,0,0,12.162843,-316.391784,-8689.590239)">
        <path d="M51.711,821.628C44.784,830.921 42.866,828.278 42.552,827.468C41.591,824.991 48.915,820.97 48.214,816.561C47.183,810.074 52.514,813.045 52.868,816.459C53.152,819.19 52.8,819.114 51.711,821.628Z"/>
    </g>
    <g transform="matrix(12.162843,0,0,12.162843,-316.391784,-8689.590239)">
        <path d="M987.167,819.393C980.708,832.063 976.992,827.527 977.065,826.54C977.275,823.671 983.983,821.814 982.449,815.514C981.382,811.135 988.689,812.288 987.167,819.393Z"/>
    </g>
    <g transform="matrix(12.162843,0,0,12.162843,-316.391784,-8689.590239)">
        <path d="M972.313,821.292C974.606,818.878 975.288,818.796 974.168,815.635C973.313,813.223 975.108,812.381 976.459,812.658C983.758,814.155 975.415,827.808 971.674,826.057C968.852,824.735 972.04,821.563 972.313,821.292Z"/>
    </g>
    <g transform="matrix(12.162843,0,0,12.162843,-316.391784,-8689.590239)">
        <path d="M44.904,817.508C42.865,827.173 32.883,828.039 36.51,822.508C38.614,819.301 40.903,819.874 39.551,815.485C38.792,813.019 43.745,809.88 44.904,817.508Z"/>
    </g>
    <g transform="matrix(12.162843,0,0,12.162843,-316.391784,-8689.590239)">
        <path d="M176.54,835.522C176.284,836.041 169.781,849.252 171.284,840.487C172.607,832.776 182.998,822.468 178.491,831.496C177.824,832.83 177.206,834.188 176.54,835.522Z" style="fill:rgb(246,246,246);"/>
    </g>
    <g transform="matrix(12.162843,0,0,12.162843,-316.391784,-8689.590239)">
        <path d="M739.514,788.505C739.777,787.813 742.699,780.142 742.937,779.906C747.301,775.571 739.421,797.539 737.497,797.648C736.749,797.691 736.429,797.066 739.514,788.505Z" style="fill:rgb(248,189,187);"/>
    </g>
    <g transform="matrix(12.162843,0,0,12.162843,-316.391784,-8689.590239)">
        <path d="M378.641,832.723C384.738,830.896 382.887,837.125 379.507,837.562C373.199,838.378 378.368,833.007 378.641,832.723Z"/>
    </g>
    <g transform="matrix(12.162843,0,0,12.162843,-316.391784,-8689.590239)">
        <path d="M836.431,836.449C836.608,836.249 844.24,827.62 839.636,835.541C838.517,837.466 836.765,839.351 836.488,839.465C834.161,840.421 836.311,836.658 836.431,836.449Z" style="fill:rgb(221,112,108);"/>
    </g>
    <g transform="matrix(12.162843,0,0,12.162843,-316.391784,-8689.590239)">
        <path d="M854.592,858.611C855.42,858.562 854.761,857.642 855.531,857.597C855.637,857.59 856.116,857.562 856.507,858.498C856.637,858.809 856.193,859.181 856.323,859.492C855.143,857.554 854.614,858.62 854.592,858.611Z" style="fill:rgb(225,138,126);"/>
    </g>
    <g transform="matrix(12.162843,0,0,12.162843,-316.391784,-8689.590239)">
        <path d="M862.753,849.475C863.277,849.754 863.802,850.033 864.326,850.311C863.935,850.338 863.815,851.04 863.423,851.067C863.286,851.076 863.376,850.954 862.753,849.475Z" style="fill:rgb(219,94,92);"/>
    </g>
    <g transform="matrix(12.162843,0,0,12.162843,-316.391784,-8689.590239)">
        <path d="M223.699,852.712C224.086,852.683 224.225,852.016 224.613,851.988C224.613,851.988 225.309,853.398 225.37,853.52C224.701,852.77 224.63,852.976 223.699,852.712Z" style="fill:rgb(127,127,127);"/>
    </g>
</svg>
